<svg viewBox="0 0 400 400" fill="none" xmlns="http://www.w3.org/2000/svg">
<path fill-rule="evenodd" clip-rule="evenodd" d="M392.971 7.0293L200 200L392.971 392.97C397.314 388.627 400 382.627 400 376V23.9999C400 17.3724 397.314 11.3724 392.971 7.0293Z" fill="#9B9B9B"/>
<path fill-rule="evenodd" clip-rule="evenodd" d="M392.971 7.02944L200 200L7.02942 7.02944C11.3726 2.68629 17.3726 0 24 0H376C382.627 0 388.627 2.68629 392.971 7.02944Z" fill="#ADADAD"/>
<path fill-rule="evenodd" clip-rule="evenodd" d="M7.02944 7.0293L200 200L7.02944 392.97C2.68629 388.627 0 382.627 0 376V23.9999C0 17.3724 2.68629 11.3724 7.02944 7.0293Z" fill="#9B9B9B"/>
<path fill-rule="evenodd" clip-rule="evenodd" d="M392.971 392.971L200 200L7.02942 392.971C11.3726 397.314 17.3726 400 24 400H376C382.627 400 388.627 397.314 392.971 392.971Z" fill="#ADADAD"/>
<rect x="50" y="50" width="300" height="300" rx="2" fill="#606060"/>
<path d="M120.8 290.12C101.24 290.12 91.46 280.34 91.46 260.78V218.84C91.46 211.52 87.86 207.86 80.66 207.86C78.02 207.86 75.8 207.02 74 205.34C72.32 203.66 71.48 201.5 71.48 198.86C71.48 196.1 72.32 193.88 74 192.2C75.8 190.52 78.02 189.68 80.66 189.68C87.86 189.68 91.46 186.02 91.46 178.7V136.76C91.46 117.2 101.24 107.42 120.8 107.42C123.44 107.42 125.6 108.32 127.28 110.12C128.96 111.92 129.8 114.14 129.8 116.78C129.8 119.42 128.96 121.58 127.28 123.26C125.6 124.94 123.44 125.78 120.8 125.78C113.48 125.78 109.82 129.44 109.82 136.76V178.7C109.82 182.9 109.34 186.68 108.38 190.04C107.42 193.4 105.98 196.34 104.06 198.86C107.9 203.78 109.82 210.44 109.82 218.84V260.78C109.82 268.1 113.48 271.76 120.8 271.76C123.44 271.76 125.6 272.6 127.28 274.28C128.96 275.96 129.8 278.18 129.8 280.94C129.8 283.58 128.96 285.74 127.28 287.42C125.6 289.22 123.44 290.12 120.8 290.12ZM156.733 250.88C153.373 250.88 150.433 249.68 147.913 247.28C145.513 244.76 144.313 241.82 144.313 238.46C144.313 234.98 145.513 232.04 147.913 229.64C150.433 227.12 153.373 225.86 156.733 225.86C160.213 225.86 163.153 227.12 165.553 229.64C167.953 232.04 169.153 234.98 169.153 238.46C169.153 241.82 167.953 244.76 165.553 247.28C163.153 249.68 160.213 250.88 156.733 250.88ZM199.623 250.88C196.263 250.88 193.323 249.68 190.803 247.28C188.403 244.76 187.203 241.82 187.203 238.46C187.203 234.98 188.403 232.04 190.803 229.64C193.323 227.12 196.263 225.86 199.623 225.86C203.103 225.86 206.043 227.12 208.443 229.64C210.843 232.04 212.043 234.98 212.043 238.46C212.043 241.82 210.843 244.76 208.443 247.28C206.043 249.68 203.103 250.88 199.623 250.88ZM242.514 250.88C239.154 250.88 236.214 249.68 233.694 247.28C231.294 244.76 230.094 241.82 230.094 238.46C230.094 234.98 231.294 232.04 233.694 229.64C236.214 227.12 239.154 225.86 242.514 225.86C245.994 225.86 248.934 227.12 251.334 229.64C253.734 232.04 254.934 234.98 254.934 238.46C254.934 241.82 253.734 244.76 251.334 247.28C248.934 249.68 245.994 250.88 242.514 250.88ZM278.564 290.12C275.924 290.12 273.764 289.22 272.084 287.42C270.404 285.74 269.564 283.58 269.564 280.94C269.564 278.18 270.404 275.96 272.084 274.28C273.764 272.6 275.924 271.76 278.564 271.76C285.884 271.76 289.544 268.1 289.544 260.78V218.84C289.544 210.44 291.464 203.78 295.304 198.86C293.384 196.34 291.944 193.4 290.984 190.04C290.024 186.68 289.544 182.9 289.544 178.7V136.76C289.544 129.44 285.884 125.78 278.564 125.78C275.924 125.78 273.764 124.94 272.084 123.26C270.404 121.58 269.564 119.42 269.564 116.78C269.564 114.14 270.404 111.92 272.084 110.12C273.764 108.32 275.924 107.42 278.564 107.42C298.124 107.42 307.904 117.2 307.904 136.76V178.7C307.904 186.02 311.504 189.68 318.704 189.68C321.344 189.68 323.504 190.52 325.184 192.2C326.984 193.88 327.884 196.1 327.884 198.86C327.884 201.5 326.984 203.66 325.184 205.34C323.504 207.02 321.344 207.86 318.704 207.86C311.504 207.86 307.904 211.52 307.904 218.84V260.78C307.904 280.34 298.124 290.12 278.564 290.12Z" fill="white"/>
</svg>
