<?xml version="1.0" encoding="utf-8" standalone="no"?>
<!DOCTYPE svg PUBLIC "-//W3C//DTD SVG 1.1//EN"
  "http://www.w3.org/Graphics/SVG/1.1/DTD/svg11.dtd">
<svg xmlns:xlink="http://www.w3.org/1999/xlink" width="531.507078pt" height="301.392pt" viewBox="0 0 531.507078 301.392" xmlns="http://www.w3.org/2000/svg" version="1.1">
 <metadata>
  <rdf:RDF xmlns:dc="http://purl.org/dc/elements/1.1/" xmlns:cc="http://creativecommons.org/ns#" xmlns:rdf="http://www.w3.org/1999/02/22-rdf-syntax-ns#">
   <cc:Work>
    <dc:type rdf:resource="http://purl.org/dc/dcmitype/StillImage"/>
    <dc:date>2023-01-16T23:50:17.825286</dc:date>
    <dc:format>image/svg+xml</dc:format>
    <dc:creator>
     <cc:Agent>
      <dc:title>Matplotlib v3.6.2, https://matplotlib.org/</dc:title>
     </cc:Agent>
    </dc:creator>
   </cc:Work>
  </rdf:RDF>
 </metadata>
 <defs>
  <style type="text/css">*{stroke-linejoin: round; stroke-linecap: butt}</style>
 </defs>
 <g id="figure_1">
  <g id="patch_1">
   <path d="M 0 301.392 
L 531.507078 301.392 
L 531.507078 0 
L 0 0 
L 0 301.392 
z
" style="fill: none"/>
  </g>
  <g id="axes_1">
   <g id="patch_2">
    <path d="M 41.498364 255.741178 
L 320.785744 255.741178 
L 320.785744 11.575939 
L 41.498364 11.575939 
L 41.498364 255.741178 
z
" style="fill: none"/>
   </g>
   <g id="matplotlib.axis_1">
    <g id="xtick_1">
     <g id="line2d_1">
      <defs>
       <path id="m82dc76fe18" d="M 0 0 
L 0 6 
" style="stroke: #262626; stroke-width: 1.25"/>
      </defs>
      <g>
       <use xlink:href="#m82dc76fe18" x="41.498364" y="255.741178" style="fill: #262626; stroke: #262626; stroke-width: 1.25"/>
      </g>
     </g>
     <g id="text_1">
      <!-- $\mathdefault{0.0}$ -->
      <g style="fill: #262626" transform="translate(33.614446 273.993057) scale(0.1265 -0.1265)">
       <defs>
        <path id="CMR17-30" d="M 2688 2025 
C 2688 2416 2682 3080 2413 3591 
C 2176 4039 1798 4198 1466 4198 
C 1158 4198 768 4058 525 3597 
C 269 3118 243 2524 243 2025 
C 243 1661 250 1106 448 619 
C 723 -39 1216 -128 1466 -128 
C 1760 -128 2208 -7 2470 600 
C 2662 1042 2688 1559 2688 2025 
z
M 1466 -26 
C 1056 -26 813 325 723 812 
C 653 1188 653 1738 653 2096 
C 653 2588 653 2997 736 3387 
C 858 3929 1216 4096 1466 4096 
C 1728 4096 2067 3923 2189 3400 
C 2272 3036 2278 2607 2278 2096 
C 2278 1680 2278 1169 2202 792 
C 2067 95 1690 -26 1466 -26 
z
" transform="scale(0.015625)"/>
        <path id="CMMI12-3a" d="M 1178 307 
C 1178 492 1024 619 870 619 
C 685 619 557 466 557 313 
C 557 128 710 0 864 0 
C 1050 0 1178 153 1178 307 
z
" transform="scale(0.015625)"/>
       </defs>
       <use xlink:href="#CMR17-30" transform="scale(0.996264)"/>
       <use xlink:href="#CMMI12-3a" transform="translate(45.690477 0) scale(0.996264)"/>
       <use xlink:href="#CMR17-30" transform="translate(72.787654 0) scale(0.996264)"/>
      </g>
     </g>
    </g>
    <g id="xtick_2">
     <g id="line2d_2">
      <g>
       <use xlink:href="#m82dc76fe18" x="97.35584" y="255.741178" style="fill: #262626; stroke: #262626; stroke-width: 1.25"/>
      </g>
     </g>
     <g id="text_2">
      <!-- $\mathdefault{0.2}$ -->
      <g style="fill: #262626" transform="translate(89.471922 273.993057) scale(0.1265 -0.1265)">
       <defs>
        <path id="CMR17-32" d="M 2669 989 
L 2554 989 
C 2490 536 2438 459 2413 420 
C 2381 369 1920 369 1830 369 
L 602 369 
C 832 619 1280 1072 1824 1597 
C 2214 1967 2669 2402 2669 3035 
C 2669 3790 2067 4224 1395 4224 
C 691 4224 262 3604 262 3030 
C 262 2780 448 2748 525 2748 
C 589 2748 781 2787 781 3010 
C 781 3207 614 3264 525 3264 
C 486 3264 448 3258 422 3245 
C 544 3790 915 4058 1306 4058 
C 1862 4058 2227 3617 2227 3035 
C 2227 2479 1901 2000 1536 1584 
L 262 146 
L 262 0 
L 2515 0 
L 2669 989 
z
" transform="scale(0.015625)"/>
       </defs>
       <use xlink:href="#CMR17-30" transform="scale(0.996264)"/>
       <use xlink:href="#CMMI12-3a" transform="translate(45.690477 0) scale(0.996264)"/>
       <use xlink:href="#CMR17-32" transform="translate(72.787654 0) scale(0.996264)"/>
      </g>
     </g>
    </g>
    <g id="xtick_3">
     <g id="line2d_3">
      <g>
       <use xlink:href="#m82dc76fe18" x="153.213316" y="255.741178" style="fill: #262626; stroke: #262626; stroke-width: 1.25"/>
      </g>
     </g>
     <g id="text_3">
      <!-- $\mathdefault{0.4}$ -->
      <g style="fill: #262626" transform="translate(145.329398 273.993057) scale(0.1265 -0.1265)">
       <defs>
        <path id="CMR17-34" d="M 2150 4122 
C 2150 4256 2144 4256 2029 4256 
L 128 1254 
L 128 1088 
L 1779 1088 
L 1779 457 
C 1779 224 1766 160 1318 160 
L 1197 160 
L 1197 0 
C 1402 0 1747 0 1965 0 
C 2182 0 2528 0 2733 0 
L 2733 160 
L 2611 160 
C 2163 160 2150 224 2150 457 
L 2150 1088 
L 2803 1088 
L 2803 1254 
L 2150 1254 
L 2150 4122 
z
M 1798 3703 
L 1798 1254 
L 256 1254 
L 1798 3703 
z
" transform="scale(0.015625)"/>
       </defs>
       <use xlink:href="#CMR17-30" transform="scale(0.996264)"/>
       <use xlink:href="#CMMI12-3a" transform="translate(45.690477 0) scale(0.996264)"/>
       <use xlink:href="#CMR17-34" transform="translate(72.787654 0) scale(0.996264)"/>
      </g>
     </g>
    </g>
    <g id="xtick_4">
     <g id="line2d_4">
      <g>
       <use xlink:href="#m82dc76fe18" x="209.070792" y="255.741178" style="fill: #262626; stroke: #262626; stroke-width: 1.25"/>
      </g>
     </g>
     <g id="text_4">
      <!-- $\mathdefault{0.6}$ -->
      <g style="fill: #262626" transform="translate(201.186874 273.993057) scale(0.1265 -0.1265)">
       <defs>
        <path id="CMR17-36" d="M 678 2176 
C 678 3690 1395 4032 1811 4032 
C 1946 4032 2272 4009 2400 3776 
C 2298 3776 2106 3776 2106 3553 
C 2106 3381 2246 3323 2336 3323 
C 2394 3323 2566 3348 2566 3560 
C 2566 3954 2246 4179 1805 4179 
C 1043 4179 243 3390 243 1984 
C 243 253 966 -128 1478 -128 
C 2099 -128 2688 427 2688 1283 
C 2688 2081 2170 2662 1517 2662 
C 1126 2662 838 2407 678 1960 
L 678 2176 
z
M 1478 25 
C 691 25 691 1200 691 1436 
C 691 1896 909 2560 1504 2560 
C 1613 2560 1926 2560 2138 2120 
C 2253 1870 2253 1609 2253 1289 
C 2253 944 2253 690 2118 434 
C 1978 171 1773 25 1478 25 
z
" transform="scale(0.015625)"/>
       </defs>
       <use xlink:href="#CMR17-30" transform="scale(0.996264)"/>
       <use xlink:href="#CMMI12-3a" transform="translate(45.690477 0) scale(0.996264)"/>
       <use xlink:href="#CMR17-36" transform="translate(72.787654 0) scale(0.996264)"/>
      </g>
     </g>
    </g>
    <g id="xtick_5">
     <g id="line2d_5">
      <g>
       <use xlink:href="#m82dc76fe18" x="264.928268" y="255.741178" style="fill: #262626; stroke: #262626; stroke-width: 1.25"/>
      </g>
     </g>
     <g id="text_5">
      <!-- $\mathdefault{0.8}$ -->
      <g style="fill: #262626" transform="translate(257.04435 273.993057) scale(0.1265 -0.1265)">
       <defs>
        <path id="CMR17-38" d="M 1741 2264 
C 2144 2467 2554 2773 2554 3263 
C 2554 3841 1990 4179 1472 4179 
C 890 4179 378 3759 378 3180 
C 378 3021 416 2747 666 2505 
C 730 2442 998 2251 1171 2130 
C 883 1983 211 1634 211 934 
C 211 279 838 -128 1459 -128 
C 2144 -128 2720 362 2720 1010 
C 2720 1590 2330 1857 2074 2029 
L 1741 2264 
z
M 902 2822 
C 851 2854 595 3051 595 3351 
C 595 3739 998 4032 1459 4032 
C 1965 4032 2336 3676 2336 3262 
C 2336 2669 1670 2331 1638 2331 
C 1632 2331 1626 2331 1574 2370 
L 902 2822 
z
M 2080 1519 
C 2176 1449 2483 1240 2483 851 
C 2483 381 2010 25 1472 25 
C 890 25 448 438 448 940 
C 448 1443 838 1862 1280 2060 
L 2080 1519 
z
" transform="scale(0.015625)"/>
       </defs>
       <use xlink:href="#CMR17-30" transform="scale(0.996264)"/>
       <use xlink:href="#CMMI12-3a" transform="translate(45.690477 0) scale(0.996264)"/>
       <use xlink:href="#CMR17-38" transform="translate(72.787654 0) scale(0.996264)"/>
      </g>
     </g>
    </g>
    <g id="xtick_6">
     <g id="line2d_6">
      <g>
       <use xlink:href="#m82dc76fe18" x="320.785744" y="255.741178" style="fill: #262626; stroke: #262626; stroke-width: 1.25"/>
      </g>
     </g>
     <g id="text_6">
      <!-- $\mathdefault{1.0}$ -->
      <g style="fill: #262626" transform="translate(312.901826 273.993057) scale(0.1265 -0.1265)">
       <defs>
        <path id="CMR17-31" d="M 1702 4058 
C 1702 4192 1696 4192 1606 4192 
C 1357 3916 979 3827 621 3827 
C 602 3827 570 3827 563 3808 
C 557 3795 557 3782 557 3648 
C 755 3648 1088 3686 1344 3839 
L 1344 461 
C 1344 236 1331 160 781 160 
L 589 160 
L 589 0 
C 896 0 1216 0 1523 0 
C 1830 0 2150 0 2458 0 
L 2458 160 
L 2266 160 
C 1715 160 1702 230 1702 458 
L 1702 4058 
z
" transform="scale(0.015625)"/>
       </defs>
       <use xlink:href="#CMR17-31" transform="scale(0.996264)"/>
       <use xlink:href="#CMMI12-3a" transform="translate(45.690477 0) scale(0.996264)"/>
       <use xlink:href="#CMR17-30" transform="translate(72.787654 0) scale(0.996264)"/>
      </g>
     </g>
    </g>
    <g id="text_7">
     <!-- $p/n$ -->
     <g style="fill: #262626" transform="translate(170.380515 290.754892) scale(0.138 -0.138)">
      <defs>
       <path id="CMMI12-70" d="M 275 -789 
C 230 -980 205 -1031 -58 -1031 
C -134 -1031 -198 -1031 -198 -1152 
C -198 -1165 -192 -1216 -122 -1216 
C -38 -1216 51 -1216 134 -1216 
L 410 -1216 
C 544 -1216 870 -1216 1005 -1216 
C 1043 -1216 1120 -1216 1120 -1101 
C 1120 -1031 1075 -1031 966 -1031 
C 672 -1031 653 -987 653 -937 
C 653 -861 941 219 979 364 
C 1050 185 1222 -64 1555 -64 
C 2278 -64 3059 875 3059 1814 
C 3059 2401 2726 2816 2246 2816 
C 1837 2816 1491 2420 1421 2331 
C 1370 2650 1120 2816 864 2816 
C 678 2816 531 2727 410 2484 
C 294 2254 205 1865 205 1839 
C 205 1814 230 1782 275 1782 
C 326 1782 333 1788 371 1935 
C 467 2312 589 2689 845 2689 
C 992 2689 1043 2587 1043 2397 
C 1043 2245 1024 2181 998 2067 
L 275 -789 
z
M 1382 1993 
C 1427 2171 1606 2357 1709 2446 
C 1779 2510 1990 2689 2234 2689 
C 2515 2689 2643 2408 2643 2076 
C 2643 1769 2464 1047 2304 715 
C 2144 370 1850 64 1555 64 
C 1120 64 1050 613 1050 639 
C 1050 658 1062 709 1069 741 
L 1382 1993 
z
" transform="scale(0.015625)"/>
       <path id="CMMI12-3d" d="M 2746 4562 
C 2746 4569 2784 4666 2784 4678 
C 2784 4755 2720 4800 2669 4800 
C 2637 4800 2579 4800 2528 4659 
L 384 -1363 
C 384 -1370 346 -1465 346 -1478 
C 346 -1555 410 -1600 461 -1600 
C 499 -1600 557 -1593 602 -1459 
L 2746 4562 
z
" transform="scale(0.015625)"/>
       <path id="CMMI12-6e" d="M 1318 1871 
C 1331 1910 1491 2229 1728 2433 
C 1894 2586 2112 2689 2362 2689 
C 2618 2689 2707 2497 2707 2242 
C 2707 1878 2445 1150 2317 805 
C 2259 651 2227 568 2227 453 
C 2227 166 2426 -64 2733 -64 
C 3328 -64 3552 875 3552 913 
C 3552 945 3526 971 3488 971 
C 3430 971 3424 952 3392 843 
C 3245 319 3002 64 2752 64 
C 2688 64 2586 64 2586 269 
C 2586 429 2656 621 2694 710 
C 2822 1063 3091 1780 3091 2145 
C 3091 2528 2867 2816 2381 2816 
C 1811 2816 1510 2415 1395 2255 
C 1376 2618 1114 2816 832 2816 
C 627 2816 486 2695 378 2478 
C 262 2248 173 1865 173 1839 
C 173 1814 198 1782 243 1782 
C 294 1782 301 1788 339 1935 
C 442 2325 557 2689 813 2689 
C 960 2689 1011 2586 1011 2395 
C 1011 2254 947 2005 902 1807 
L 723 1118 
C 698 996 627 709 595 594 
C 550 428 480 128 480 96 
C 480 6 550 -64 646 -64 
C 723 -64 813 -26 864 70 
C 877 102 934 326 966 453 
L 1107 1028 
L 1318 1871 
z
" transform="scale(0.015625)"/>
      </defs>
      <use xlink:href="#CMMI12-70" transform="scale(0.996264)"/>
      <use xlink:href="#CMMI12-3d" transform="translate(48.959514 0) scale(0.996264)"/>
      <use xlink:href="#CMMI12-6e" transform="translate(97.734433 0) scale(0.996264)"/>
     </g>
    </g>
   </g>
   <g id="matplotlib.axis_2">
    <g id="ytick_1">
     <g id="line2d_7">
      <path d="M 41.498364 255.741178 
L 320.785744 255.741178 
" clip-path="url(#p583117b63a)" style="fill: none; stroke: #cccccc; stroke-linecap: round"/>
     </g>
     <g id="line2d_8">
      <defs>
       <path id="m1d4c296afa" d="M 0 0 
L -6 0 
" style="stroke: #262626; stroke-width: 1.25"/>
      </defs>
      <g>
       <use xlink:href="#m1d4c296afa" x="41.498364" y="255.741178" style="fill: #262626; stroke: #262626; stroke-width: 1.25"/>
      </g>
     </g>
     <g id="text_8">
      <!-- $\mathdefault{0}$ -->
      <g style="fill: #262626" transform="translate(25.828341 260.117117) scale(0.1265 -0.1265)">
       <use xlink:href="#CMR17-30" transform="scale(0.996264)"/>
      </g>
     </g>
    </g>
    <g id="ytick_2">
     <g id="line2d_9">
      <path d="M 41.498364 206.90813 
L 320.785744 206.90813 
" clip-path="url(#p583117b63a)" style="fill: none; stroke: #cccccc; stroke-linecap: round"/>
     </g>
     <g id="line2d_10">
      <g>
       <use xlink:href="#m1d4c296afa" x="41.498364" y="206.90813" style="fill: #262626; stroke: #262626; stroke-width: 1.25"/>
      </g>
     </g>
     <g id="text_9">
      <!-- $\mathdefault{1}$ -->
      <g style="fill: #262626" transform="translate(25.828341 211.28407) scale(0.1265 -0.1265)">
       <use xlink:href="#CMR17-31" transform="scale(0.996264)"/>
      </g>
     </g>
    </g>
    <g id="ytick_3">
     <g id="line2d_11">
      <path d="M 41.498364 158.075082 
L 320.785744 158.075082 
" clip-path="url(#p583117b63a)" style="fill: none; stroke: #cccccc; stroke-linecap: round"/>
     </g>
     <g id="line2d_12">
      <g>
       <use xlink:href="#m1d4c296afa" x="41.498364" y="158.075082" style="fill: #262626; stroke: #262626; stroke-width: 1.25"/>
      </g>
     </g>
     <g id="text_10">
      <!-- $\mathdefault{2}$ -->
      <g style="fill: #262626" transform="translate(25.828341 162.451022) scale(0.1265 -0.1265)">
       <use xlink:href="#CMR17-32" transform="scale(0.996264)"/>
      </g>
     </g>
    </g>
    <g id="ytick_4">
     <g id="line2d_13">
      <path d="M 41.498364 109.242035 
L 320.785744 109.242035 
" clip-path="url(#p583117b63a)" style="fill: none; stroke: #cccccc; stroke-linecap: round"/>
     </g>
     <g id="line2d_14">
      <g>
       <use xlink:href="#m1d4c296afa" x="41.498364" y="109.242035" style="fill: #262626; stroke: #262626; stroke-width: 1.25"/>
      </g>
     </g>
     <g id="text_11">
      <!-- $\mathdefault{3}$ -->
      <g style="fill: #262626" transform="translate(25.828341 113.617974) scale(0.1265 -0.1265)">
       <defs>
        <path id="CMR17-33" d="M 1414 2157 
C 1984 2157 2234 1662 2234 1090 
C 2234 320 1824 25 1453 25 
C 1114 25 563 194 390 693 
C 422 680 454 680 486 680 
C 640 680 755 782 755 948 
C 755 1133 614 1216 486 1216 
C 378 1216 211 1165 211 926 
C 211 335 787 -128 1466 -128 
C 2176 -128 2720 430 2720 1085 
C 2720 1707 2208 2157 1600 2227 
C 2086 2328 2554 2756 2554 3329 
C 2554 3820 2048 4179 1472 4179 
C 890 4179 378 3829 378 3329 
C 378 3110 544 3072 627 3072 
C 762 3072 877 3155 877 3321 
C 877 3486 762 3569 627 3569 
C 602 3569 570 3569 544 3557 
C 730 3959 1235 4032 1459 4032 
C 1683 4032 2106 3925 2106 3320 
C 2106 3143 2080 2828 1862 2550 
C 1670 2304 1453 2304 1242 2284 
C 1210 2284 1062 2269 1037 2269 
C 992 2263 966 2257 966 2208 
C 966 2163 973 2157 1101 2157 
L 1414 2157 
z
" transform="scale(0.015625)"/>
       </defs>
       <use xlink:href="#CMR17-33" transform="scale(0.996264)"/>
      </g>
     </g>
    </g>
    <g id="ytick_5">
     <g id="line2d_15">
      <path d="M 41.498364 60.408987 
L 320.785744 60.408987 
" clip-path="url(#p583117b63a)" style="fill: none; stroke: #cccccc; stroke-linecap: round"/>
     </g>
     <g id="line2d_16">
      <g>
       <use xlink:href="#m1d4c296afa" x="41.498364" y="60.408987" style="fill: #262626; stroke: #262626; stroke-width: 1.25"/>
      </g>
     </g>
     <g id="text_12">
      <!-- $\mathdefault{4}$ -->
      <g style="fill: #262626" transform="translate(25.828341 64.784927) scale(0.1265 -0.1265)">
       <use xlink:href="#CMR17-34" transform="scale(0.996264)"/>
      </g>
     </g>
    </g>
    <g id="ytick_6">
     <g id="line2d_17">
      <path d="M 41.498364 11.575939 
L 320.785744 11.575939 
" clip-path="url(#p583117b63a)" style="fill: none; stroke: #cccccc; stroke-linecap: round"/>
     </g>
     <g id="line2d_18">
      <g>
       <use xlink:href="#m1d4c296afa" x="41.498364" y="11.575939" style="fill: #262626; stroke: #262626; stroke-width: 1.25"/>
      </g>
     </g>
     <g id="text_13">
      <!-- $\mathdefault{5}$ -->
      <g style="fill: #262626" transform="translate(25.828341 15.951879) scale(0.1265 -0.1265)">
       <defs>
        <path id="CMR17-35" d="M 730 3692 
C 794 3666 1056 3584 1325 3584 
C 1920 3584 2246 3911 2432 4100 
C 2432 4157 2432 4192 2394 4192 
C 2387 4192 2374 4192 2323 4163 
C 2099 4058 1837 3973 1517 3973 
C 1325 3973 1037 3999 723 4139 
C 653 4171 640 4171 634 4171 
C 602 4171 595 4164 595 4037 
L 595 2203 
C 595 2089 595 2057 659 2057 
C 691 2057 704 2070 736 2114 
C 941 2401 1222 2522 1542 2522 
C 1766 2522 2246 2382 2246 1289 
C 2246 1085 2246 715 2054 421 
C 1894 159 1645 25 1370 25 
C 947 25 518 320 403 814 
C 429 807 480 795 506 795 
C 589 795 749 840 749 1038 
C 749 1210 627 1280 506 1280 
C 358 1280 262 1190 262 1011 
C 262 454 704 -128 1382 -128 
C 2042 -128 2669 440 2669 1264 
C 2669 2030 2170 2624 1549 2624 
C 1222 2624 947 2503 730 2274 
L 730 3692 
z
" transform="scale(0.015625)"/>
       </defs>
       <use xlink:href="#CMR17-35" transform="scale(0.996264)"/>
      </g>
     </g>
    </g>
    <g id="text_14">
     <!-- Complexity / $n^3$ -->
     <g style="fill: #262626" transform="translate(18.391233 181.843625) rotate(-90) scale(0.138 -0.138)">
      <defs>
       <path id="CMR17-43" d="M 3974 4289 
C 3974 4403 3968 4410 3930 4410 
C 3904 4410 3898 4403 3853 4327 
L 3571 3792 
C 3258 4187 2874 4416 2381 4416 
C 1286 4416 294 3456 294 2148 
C 294 826 1286 -128 2387 -128 
C 3366 -128 3974 730 3974 1461 
C 3974 1524 3974 1550 3917 1550 
C 3866 1550 3866 1531 3859 1474 
C 3808 585 3168 38 2477 38 
C 1824 38 781 495 781 2147 
C 781 3805 1843 4250 2464 4250 
C 3187 4250 3712 3628 3834 2745 
C 3846 2668 3846 2655 3904 2655 
C 3974 2655 3974 2668 3974 2783 
L 3974 4289 
z
" transform="scale(0.015625)"/>
       <path id="CMR17-6f" d="M 2758 1356 
C 2758 2176 2163 2816 1466 2816 
C 768 2816 173 2176 173 1356 
C 173 551 768 -64 1466 -64 
C 2163 -64 2758 551 2758 1356 
z
M 1466 51 
C 1165 51 909 230 762 480 
C 602 767 582 1126 582 1408 
C 582 1677 595 2010 762 2298 
C 890 2509 1139 2714 1466 2714 
C 1754 2714 1997 2554 2150 2330 
C 2349 2029 2349 1607 2349 1408 
C 2349 1158 2336 775 2163 467 
C 1984 173 1709 51 1466 51 
z
" transform="scale(0.015625)"/>
       <path id="CMR17-6d" d="M 4326 1933 
C 4326 2252 4269 2790 3507 2790 
C 3072 2790 2771 2496 2656 2151 
L 2650 2151 
C 2573 2676 2195 2790 1837 2790 
C 1331 2790 1069 2400 973 2144 
L 966 2144 
L 966 2790 
L 211 2720 
L 211 2554 
C 589 2554 646 2515 646 2208 
L 646 428 
C 646 184 621 153 211 153 
L 211 -13 
C 365 0 646 0 813 0 
C 979 0 1267 0 1421 -13 
L 1421 153 
C 1011 153 986 178 986 428 
L 986 1658 
C 986 2247 1344 2688 1792 2688 
C 2266 2688 2317 2266 2317 1958 
L 2317 428 
C 2317 184 2291 153 1882 153 
L 1882 -13 
C 2035 0 2317 0 2483 0 
C 2650 0 2938 0 3091 -13 
L 3091 153 
C 2682 153 2656 178 2656 428 
L 2656 1658 
C 2656 2247 3014 2688 3462 2688 
C 3936 2688 3987 2266 3987 1958 
L 3987 428 
C 3987 184 3962 153 3552 153 
L 3552 -13 
C 3706 0 3987 0 4154 0 
C 4320 0 4608 0 4762 -13 
L 4762 153 
C 4352 153 4326 178 4326 428 
L 4326 1933 
z
" transform="scale(0.015625)"/>
       <path id="CMR17-70" d="M 1408 -1063 
C 998 -1063 973 -1037 973 -789 
L 973 402 
C 1158 134 1427 -38 1766 -38 
C 2406 -38 3053 523 3053 1388 
C 3053 2191 2496 2802 1837 2802 
C 1453 2802 1139 2592 960 2338 
L 960 2802 
L 198 2732 
L 198 2567 
C 576 2567 634 2528 634 2223 
L 634 -789 
C 634 -1031 608 -1063 198 -1063 
L 198 -1228 
C 352 -1216 634 -1216 800 -1216 
C 966 -1216 1254 -1216 1408 -1228 
L 1408 -1063 
z
M 973 2012 
C 973 2102 973 2235 1222 2471 
C 1254 2497 1472 2688 1792 2688 
C 2259 2688 2643 2108 2643 1382 
C 2643 656 2234 64 1728 64 
C 1498 64 1248 172 1056 472 
C 973 612 973 650 973 752 
L 973 2012 
z
" transform="scale(0.015625)"/>
       <path id="CMR17-6c" d="M 979 4396 
L 218 4326 
L 218 4160 
C 595 4160 653 4122 653 3817 
L 653 426 
C 653 184 627 153 218 153 
L 218 -13 
C 371 0 653 0 813 0 
C 979 0 1261 0 1414 -13 
L 1414 153 
C 1005 153 979 178 979 426 
L 979 4396 
z
" transform="scale(0.015625)"/>
       <path id="CMR17-65" d="M 2438 1472 
C 2464 1498 2464 1511 2464 1576 
C 2464 2238 2118 2816 1389 2816 
C 710 2816 173 2169 173 1383 
C 173 551 781 -64 1459 -64 
C 2176 -64 2458 607 2458 740 
C 2458 784 2419 784 2406 784 
C 2362 784 2355 771 2330 696 
C 2189 265 1837 51 1504 51 
C 1229 51 954 203 781 480 
C 582 803 582 1176 582 1472 
L 2438 1472 
z
M 589 1568 
C 634 2505 1126 2714 1382 2714 
C 1818 2714 2112 2297 2118 1568 
L 589 1568 
z
" transform="scale(0.015625)"/>
       <path id="CMR17-78" d="M 1664 1477 
C 1856 1726 2074 2006 2253 2216 
C 2464 2458 2707 2560 2989 2560 
L 2989 2726 
C 2880 2726 2656 2726 2541 2726 
C 2368 2726 2170 2726 2022 2732 
L 2022 2566 
C 2112 2553 2163 2489 2163 2400 
C 2163 2285 2099 2215 2067 2171 
L 1594 1573 
L 1030 2306 
C 973 2376 973 2388 973 2420 
C 973 2497 1037 2560 1146 2560 
L 1146 2732 
C 992 2726 717 2726 557 2726 
C 384 2726 179 2726 38 2732 
L 38 2560 
C 384 2560 461 2534 614 2343 
L 1350 1395 
C 1363 1382 1395 1344 1395 1325 
C 1395 1299 838 619 768 530 
C 480 185 179 160 6 160 
L 6 0 
C 115 0 339 0 454 0 
C 582 0 864 0 979 -6 
L 979 160 
C 941 166 838 179 838 325 
C 838 440 890 510 947 586 
L 1478 1236 
L 2035 512 
C 2086 442 2163 346 2163 301 
C 2163 211 2086 160 1984 160 
L 1984 -6 
C 2138 0 2413 0 2573 0 
C 2746 0 2950 0 3091 -6 
L 3091 160 
C 2771 160 2675 172 2522 370 
L 1664 1477 
z
" transform="scale(0.015625)"/>
       <path id="CMR17-69" d="M 992 3909 
C 992 4049 877 4170 730 4170 
C 589 4170 467 4056 467 3909 
C 467 3769 582 3648 730 3648 
C 870 3648 992 3763 992 3909 
z
M 243 2706 
L 243 2541 
C 602 2541 653 2502 653 2197 
L 653 427 
C 653 184 627 153 218 153 
L 218 -13 
C 371 0 646 0 806 0 
C 960 0 1222 0 1370 -13 
L 1370 153 
C 992 153 979 191 979 420 
L 979 2776 
L 243 2706 
z
" transform="scale(0.015625)"/>
       <path id="CMR17-74" d="M 966 2560 
L 1862 2560 
L 1862 2725 
L 966 2725 
L 966 3904 
L 851 3904 
C 838 3245 614 2668 70 2668 
L 70 2560 
L 627 2560 
L 627 771 
C 627 650 627 -64 1370 -64 
C 1747 -64 1965 306 1965 777 
L 1965 1140 
L 1850 1140 
L 1850 783 
C 1850 344 1677 51 1408 51 
C 1222 51 966 178 966 758 
L 966 2560 
z
" transform="scale(0.015625)"/>
       <path id="CMR17-79" d="M 2496 2197 
C 2656 2586 2944 2586 3034 2586 
L 3034 2752 
C 2912 2752 2752 2752 2630 2752 
C 2496 2752 2285 2752 2157 2758 
L 2157 2592 
C 2400 2573 2406 2394 2406 2343 
C 2406 2280 2394 2248 2362 2171 
L 1664 449 
L 902 2306 
C 870 2382 870 2426 870 2433 
C 870 2573 1018 2586 1171 2586 
L 1171 2758 
C 1018 2752 742 2752 582 2752 
C 410 2752 205 2752 64 2758 
L 64 2586 
C 410 2586 448 2554 531 2350 
L 1485 15 
C 1197 -738 1030 -1178 627 -1178 
C 557 -1178 397 -1159 282 -1044 
C 429 -1031 493 -942 493 -833 
C 493 -725 416 -629 288 -629 
C 147 -629 77 -725 77 -840 
C 77 -1095 339 -1280 627 -1280 
C 998 -1280 1229 -922 1357 -604 
L 2496 2197 
z
" transform="scale(0.015625)"/>
       <path id="CMR17-2f" d="M 2605 4545 
C 2637 4627 2637 4640 2637 4653 
C 2637 4729 2579 4768 2528 4768 
C 2451 4768 2426 4717 2400 4640 
L 326 -1377 
C 294 -1460 294 -1473 294 -1486 
C 294 -1562 352 -1600 403 -1600 
C 480 -1600 506 -1549 531 -1473 
L 2605 4545 
z
" transform="scale(0.015625)"/>
      </defs>
      <use xlink:href="#CMR17-43" transform="scale(0.996264)"/>
      <use xlink:href="#CMR17-6f" transform="translate(66.509881 0) scale(0.996264)"/>
      <use xlink:href="#CMR17-6d" transform="translate(112.200358 0) scale(0.996264)"/>
      <use xlink:href="#CMR17-70" transform="translate(189.119948 0) scale(0.996264)"/>
      <use xlink:href="#CMR17-6c" transform="translate(240.015317 0) scale(0.996264)"/>
      <use xlink:href="#CMR17-65" transform="translate(264.886376 0) scale(0.996264)"/>
      <use xlink:href="#CMR17-78" transform="translate(305.372036 0) scale(0.996264)"/>
      <use xlink:href="#CMR17-69" transform="translate(353.664952 0) scale(0.996264)"/>
      <use xlink:href="#CMR17-74" transform="translate(378.536011 0) scale(0.996264)"/>
      <use xlink:href="#CMR17-79" transform="translate(411.214324 0) scale(0.996264)"/>
      <use xlink:href="#CMR17-2f" transform="translate(489.583207 0) scale(0.996264)"/>
      <use xlink:href="#CMMI12-6e" transform="translate(565.34965 0) scale(0.996264)"/>
      <use xlink:href="#CMR17-33" transform="translate(623.579697 36.153639) scale(0.697382)"/>
     </g>
    </g>
   </g>
   <g id="line2d_19">
    <path d="M 41.498364 223.185813 
L 47.198107 222.168605 
L 52.897849 221.109059 
L 58.597591 220.005515 
L 64.297334 218.856314 
L 69.997076 217.659793 
L 75.696819 216.414295 
L 81.396561 215.118157 
L 87.096304 213.769719 
L 92.796046 212.367322 
L 98.495789 210.909306 
L 104.195531 209.394009 
L 109.895273 207.819771 
L 115.595016 206.184933 
L 121.294758 204.487833 
L 126.994501 202.726812 
L 132.694243 200.90021 
L 138.393986 199.006365 
L 144.093728 197.043618 
L 149.793471 195.010309 
L 155.493213 192.904777 
L 161.192955 190.725361 
L 166.892698 188.470402 
L 172.59244 186.138239 
L 178.292183 183.727213 
L 183.991925 181.235661 
L 189.691668 178.661925 
L 195.39141 176.004345 
L 201.091153 173.261259 
L 206.790895 170.431007 
L 212.490637 167.511929 
L 218.19038 164.502366 
L 223.890122 161.400656 
L 229.589865 158.205139 
L 235.289607 154.914155 
L 240.98935 151.526044 
L 246.689092 148.039145 
L 252.388835 144.451798 
L 258.088577 140.762344 
L 263.788319 136.96912 
L 269.488062 133.070468 
L 275.187804 129.064726 
L 280.887547 124.950236 
L 286.587289 120.725335 
L 292.287032 116.388365 
L 297.986774 111.937664 
L 303.686517 107.371573 
L 309.386259 102.688431 
L 315.086001 97.886577 
L 320.785744 92.964352 
" clip-path="url(#p583117b63a)" style="fill: none; stroke: #9acd32; stroke-width: 2; stroke-linecap: round"/>
   </g>
   <g id="line2d_20">
    <path d="M 41.498364 239.463495 
L 47.198107 238.954891 
L 52.897849 238.425118 
L 58.597591 237.873347 
L 64.297334 237.298746 
L 69.997076 236.700486 
L 75.696819 236.077736 
L 81.396561 235.429667 
L 87.096304 234.755449 
L 92.796046 234.05425 
L 98.495789 233.325242 
L 104.195531 232.567593 
L 109.895273 231.780474 
L 115.595016 230.963055 
L 121.294758 230.114506 
L 126.994501 229.233995 
L 132.694243 228.320694 
L 138.393986 227.373772 
L 144.093728 226.392398 
L 149.793471 225.375743 
L 155.493213 224.322977 
L 161.192955 223.233269 
L 166.892698 222.10579 
L 172.59244 220.939709 
L 178.292183 219.734195 
L 183.991925 218.48842 
L 189.691668 217.201552 
L 195.39141 215.872761 
L 201.091153 214.501218 
L 206.790895 213.086092 
L 212.490637 211.626554 
L 218.19038 210.121772 
L 223.890122 208.570917 
L 229.589865 206.973158 
L 235.289607 205.327666 
L 240.98935 203.633611 
L 246.689092 201.890161 
L 252.388835 200.096488 
L 258.088577 198.251761 
L 263.788319 196.355149 
L 269.488062 194.405823 
L 275.187804 192.402952 
L 280.887547 190.345707 
L 286.587289 188.233257 
L 292.287032 186.064771 
L 297.986774 183.839421 
L 303.686517 181.556375 
L 309.386259 179.214804 
L 315.086001 176.813877 
L 320.785744 174.352765 
" clip-path="url(#p583117b63a)" style="fill: none; stroke: #556b2f; stroke-width: 2; stroke-linecap: round"/>
   </g>
   <g id="line2d_21">
    <path d="M 41.498364 239.463495 
L 47.198107 238.944722 
L 52.897849 238.384441 
L 58.597591 237.781823 
L 64.297334 237.136037 
L 69.997076 236.446253 
L 75.696819 235.711641 
L 81.396561 234.931371 
L 87.096304 234.104612 
L 92.796046 233.230536 
L 98.495789 232.30831 
L 104.195531 231.337106 
L 109.895273 230.316093 
L 115.595016 229.244441 
L 121.294758 228.12132 
L 126.994501 226.945899 
L 132.694243 225.717349 
L 138.393986 224.43484 
L 144.093728 223.09754 
L 149.793471 221.704621 
L 155.493213 220.255251 
L 161.192955 218.748602 
L 166.892698 217.183842 
L 172.59244 215.560141 
L 178.292183 213.87667 
L 183.991925 212.132598 
L 189.691668 210.327095 
L 195.39141 208.459331 
L 201.091153 206.528476 
L 206.790895 204.533699 
L 212.490637 202.474171 
L 218.19038 200.349061 
L 223.890122 198.157539 
L 229.589865 195.898775 
L 235.289607 193.571939 
L 240.98935 191.176201 
L 246.689092 188.71073 
L 252.388835 186.174697 
L 258.088577 183.567271 
L 263.788319 180.887622 
L 269.488062 178.13492 
L 275.187804 175.308335 
L 280.887547 172.407036 
L 286.587289 169.430194 
L 292.287032 166.376979 
L 297.986774 163.246559 
L 303.686517 160.038106 
L 309.386259 156.750789 
L 315.086001 153.383777 
L 320.785744 149.936241 
" clip-path="url(#p583117b63a)" style="fill: none; stroke-dasharray: 7.4,3.2; stroke-dashoffset: 0; stroke: #556b2f; stroke-width: 2"/>
   </g>
   <g id="line2d_22">
    <path d="M 41.498364 223.185813 
L 47.198107 221.17215 
L 52.897849 219.11698 
L 58.597591 217.019472 
L 64.297334 214.878797 
L 69.997076 212.694124 
L 75.696819 210.464623 
L 81.396561 208.189464 
L 87.096304 205.867816 
L 92.796046 203.49885 
L 98.495789 201.081736 
L 104.195531 198.615642 
L 109.895273 196.09974 
L 115.595016 193.533199 
L 121.294758 190.915188 
L 126.994501 188.244879 
L 132.694243 185.521439 
L 138.393986 182.74404 
L 144.093728 179.911852 
L 149.793471 177.024043 
L 155.493213 174.079785 
L 161.192955 171.078246 
L 166.892698 168.018597 
L 172.59244 164.900007 
L 178.292183 161.721646 
L 183.991925 158.482685 
L 189.691668 155.182293 
L 195.39141 151.81964 
L 201.091153 148.393895 
L 206.790895 144.904229 
L 212.490637 141.349812 
L 218.19038 137.729813 
L 223.890122 134.043401 
L 229.589865 130.289748 
L 235.289607 126.468023 
L 240.98935 122.577396 
L 246.689092 118.617036 
L 252.388835 114.586113 
L 258.088577 110.483798 
L 263.788319 106.30926 
L 269.488062 102.061669 
L 275.187804 97.740194 
L 280.887547 93.344007 
L 286.587289 88.872275 
L 292.287032 84.324171 
L 297.986774 79.698862 
L 303.686517 74.99552 
L 309.386259 70.213313 
L 315.086001 65.351412 
L 320.785744 60.408987 
" clip-path="url(#p583117b63a)" style="fill: none; stroke: #cd5c5c; stroke-width: 2; stroke-linecap: round"/>
   </g>
   <g id="line2d_23">
    <path d="M 41.498364 223.185813 
L 47.198107 221.161981 
L 52.897849 219.076303 
L 58.597591 216.927949 
L 64.297334 214.716088 
L 69.997076 212.439891 
L 75.696819 210.098528 
L 81.396561 207.691167 
L 87.096304 205.21698 
L 92.796046 202.675136 
L 98.495789 200.064804 
L 104.195531 197.385155 
L 109.895273 194.635359 
L 115.595016 191.814585 
L 121.294758 188.922003 
L 126.994501 185.956783 
L 132.694243 182.918095 
L 138.393986 179.805109 
L 144.093728 176.616994 
L 149.793471 173.352921 
L 155.493213 170.012059 
L 161.192955 166.593578 
L 166.892698 163.096648 
L 172.59244 159.520439 
L 178.292183 155.864121 
L 183.991925 152.126864 
L 189.691668 148.307836 
L 195.39141 144.40621 
L 201.091153 140.421153 
L 206.790895 136.351836 
L 212.490637 132.197429 
L 218.19038 127.957101 
L 223.890122 123.630024 
L 229.589865 119.215365 
L 235.289607 114.712296 
L 240.98935 110.119986 
L 246.689092 105.437604 
L 252.388835 100.664322 
L 258.088577 95.799308 
L 263.788319 90.841733 
L 269.488062 85.790766 
L 275.187804 80.645577 
L 280.887547 75.405336 
L 286.587289 70.069213 
L 292.287032 64.636378 
L 297.986774 59.106 
L 303.686517 53.47725 
L 309.386259 47.749298 
L 315.086001 41.921312 
L 320.785744 35.992463 
" clip-path="url(#p583117b63a)" style="fill: none; stroke-dasharray: 7.4,3.2; stroke-dashoffset: 0; stroke: #cd5c5c; stroke-width: 2"/>
   </g>
   <g id="line2d_24">
    <path d="M 41.498364 223.185813 
L 47.198107 221.192627 
L 52.897849 219.199441 
L 58.597591 217.206256 
L 64.297334 215.21307 
L 69.997076 213.219885 
L 75.696819 211.226699 
L 81.396561 209.233513 
L 87.096304 207.240328 
L 92.796046 205.247142 
L 98.495789 203.253956 
L 104.195531 201.260771 
L 109.895273 199.267585 
L 115.595016 197.2744 
L 121.294758 195.281214 
L 126.994501 193.288028 
L 132.694243 191.294843 
L 138.393986 189.301657 
L 144.093728 187.308472 
L 149.793471 185.315286 
L 155.493213 183.3221 
L 161.192955 181.328915 
L 166.892698 179.335729 
L 172.59244 177.342543 
L 178.292183 175.349358 
L 183.991925 173.356172 
L 189.691668 171.362987 
L 195.39141 169.369801 
L 201.091153 167.376615 
L 206.790895 165.38343 
L 212.490637 163.390244 
L 218.19038 161.397058 
L 223.890122 159.403873 
L 229.589865 157.410687 
L 235.289607 155.417502 
L 240.98935 153.424316 
L 246.689092 151.43113 
L 252.388835 149.437945 
L 258.088577 147.444759 
L 263.788319 145.451574 
L 269.488062 143.458388 
L 275.187804 141.465202 
L 280.887547 139.472017 
L 286.587289 137.478831 
L 292.287032 135.485645 
L 297.986774 133.49246 
L 303.686517 131.499274 
L 309.386259 129.506089 
L 315.086001 127.512903 
L 320.785744 125.519717 
" clip-path="url(#p583117b63a)" style="fill: none; stroke: #800000; stroke-width: 2; stroke-linecap: round"/>
   </g>
   <g id="line2d_25">
    <path d="M 41.498364 27.853622 
L 47.198107 32.765539 
L 52.897849 37.535916 
L 58.597591 42.165583 
L 64.297334 46.65537 
L 69.997076 51.006107 
L 75.696819 55.218624 
L 81.396561 59.293752 
L 87.096304 63.232321 
L 92.796046 67.03516 
L 98.495789 70.7031 
L 104.195531 74.236972 
L 109.895273 77.637604 
L 115.595016 80.905828 
L 121.294758 84.042474 
L 126.994501 87.048371 
L 132.694243 89.92435 
L 138.393986 92.671241 
L 144.093728 95.289874 
L 149.793471 97.781079 
L 155.493213 100.145687 
L 161.192955 102.384527 
L 166.892698 104.49843 
L 172.59244 106.488226 
L 178.292183 108.354745 
L 183.991925 110.098817 
L 189.691668 111.721272 
L 195.39141 113.222941 
L 201.091153 114.604653 
L 206.790895 115.867239 
L 212.490637 117.011529 
L 218.19038 118.038353 
L 223.890122 118.948542 
L 229.589865 119.742924 
L 235.289607 120.422331 
L 240.98935 120.987593 
L 246.689092 121.439539 
L 252.388835 121.779001 
L 258.088577 122.006807 
L 263.788319 122.123789 
L 269.488062 122.130776 
L 275.187804 122.028599 
L 280.887547 121.818087 
L 286.587289 121.500071 
L 292.287032 121.075381 
L 297.986774 120.544847 
L 303.686517 119.9093 
L 309.386259 119.169569 
L 315.086001 118.326484 
L 320.785744 117.380876 
" clip-path="url(#p583117b63a)" style="fill: none; stroke: #ffd700; stroke-width: 2; stroke-linecap: round"/>
   </g>
   <g id="line2d_26">
    <path d="M 41.498364 27.853622 
L 47.198107 32.75537 
L 52.897849 37.495239 
L 58.597591 42.074059 
L 64.297334 46.492661 
L 69.997076 50.751874 
L 75.696819 54.852529 
L 81.396561 58.795456 
L 87.096304 62.581485 
L 92.796046 66.211446 
L 98.495789 69.686169 
L 104.195531 73.006485 
L 109.895273 76.173223 
L 115.595016 79.187214 
L 121.294758 82.049288 
L 126.994501 84.760275 
L 132.694243 87.321005 
L 138.393986 89.732309 
L 144.093728 91.995016 
L 149.793471 94.109957 
L 155.493213 96.077961 
L 161.192955 97.899859 
L 166.892698 99.576482 
L 172.59244 101.108659 
L 178.292183 102.49722 
L 183.991925 103.742995 
L 189.691668 104.846816 
L 195.39141 105.809511 
L 201.091153 106.631911 
L 206.790895 107.314846 
L 212.490637 107.859146 
L 218.19038 108.265642 
L 223.890122 108.535164 
L 229.589865 108.668541 
L 235.289607 108.666604 
L 240.98935 108.530183 
L 246.689092 108.260108 
L 252.388835 107.857209 
L 258.088577 107.322317 
L 263.788319 106.656262 
L 269.488062 105.859873 
L 275.187804 104.933981 
L 280.887547 103.879416 
L 286.587289 102.697009 
L 292.287032 101.387588 
L 297.986774 99.951986 
L 303.686517 98.39103 
L 309.386259 96.705553 
L 315.086001 94.896384 
L 320.785744 92.964352 
" clip-path="url(#p583117b63a)" style="fill: none; stroke-dasharray: 7.4,3.2; stroke-dashoffset: 0; stroke: #ffd700; stroke-width: 2"/>
   </g>
   <g id="line2d_27">
    <path d="M 41.498364 68.547828 
L 47.198107 71.49693 
L 52.897849 74.364676 
L 58.597591 77.151068 
L 64.297334 79.856106 
L 69.997076 82.479789 
L 75.696819 85.022118 
L 81.396561 87.483092 
L 87.096304 89.862711 
L 92.796046 92.160976 
L 98.495789 94.377887 
L 104.195531 96.513443 
L 109.895273 98.567644 
L 115.595016 100.540491 
L 121.294758 102.431984 
L 126.994501 104.242122 
L 132.694243 105.970905 
L 138.393986 107.618334 
L 144.093728 109.184409 
L 149.793471 110.669129 
L 155.493213 112.072494 
L 161.192955 113.394505 
L 166.892698 114.635161 
L 172.59244 115.794463 
L 178.292183 116.87241 
L 183.991925 117.869003 
L 189.691668 118.784241 
L 195.39141 119.618125 
L 201.091153 120.370654 
L 206.790895 121.041829 
L 212.490637 121.631649 
L 218.19038 122.140115 
L 223.890122 122.567226 
L 229.589865 122.912983 
L 235.289607 123.177385 
L 240.98935 123.360433 
L 246.689092 123.462126 
L 252.388835 123.482465 
L 258.088577 123.421449 
L 263.788319 123.279078 
L 269.488062 123.055353 
L 275.187804 122.750274 
L 280.887547 122.36384 
L 286.587289 121.896052 
L 292.287032 121.346909 
L 297.986774 120.716411 
L 303.686517 120.004559 
L 309.386259 119.211353 
L 315.086001 118.336792 
L 320.785744 117.380876 
" clip-path="url(#p583117b63a)" style="fill: none; stroke: #daa520; stroke-width: 2; stroke-linecap: round"/>
   </g>
   <g id="line2d_28">
    <path d="M 41.498364 44.131305 
L 47.198107 48.05666 
L 52.897849 51.859984 
L 58.597591 55.541275 
L 64.297334 59.100535 
L 69.997076 62.537764 
L 75.696819 65.85296 
L 81.396561 69.046125 
L 87.096304 72.117258 
L 92.796046 75.066359 
L 98.495789 77.893428 
L 104.195531 80.598466 
L 109.895273 83.181472 
L 115.595016 85.642446 
L 121.294758 87.981388 
L 126.994501 90.198299 
L 132.694243 92.293177 
L 138.393986 94.266024 
L 144.093728 96.11684 
L 149.793471 97.845623 
L 155.493213 99.452375 
L 161.192955 100.937095 
L 166.892698 102.299783 
L 172.59244 103.540439 
L 178.292183 104.659064 
L 183.991925 105.655657 
L 189.691668 106.530218 
L 195.39141 107.282747 
L 201.091153 107.913244 
L 206.790895 108.42171 
L 212.490637 108.808144 
L 218.19038 109.072546 
L 223.890122 109.214917 
L 229.589865 109.235255 
L 235.289607 109.133562 
L 240.98935 108.909837 
L 246.689092 108.56408 
L 252.388835 108.096292 
L 258.088577 107.506472 
L 263.788319 106.79462 
L 269.488062 105.960736 
L 275.187804 105.00482 
L 280.887547 103.926873 
L 286.587289 102.726894 
L 292.287032 101.404883 
L 297.986774 99.960841 
L 303.686517 98.394766 
L 309.386259 96.70666 
L 315.086001 94.896522 
L 320.785744 92.964352 
" clip-path="url(#p583117b63a)" style="fill: none; stroke-dasharray: 7.4,3.2; stroke-dashoffset: 0; stroke: #daa520; stroke-width: 2"/>
   </g>
   <g id="line2d_29">
    <path d="M 41.498364 27.853622 
L 47.198107 32.816524 
L 52.897849 37.740409 
L 58.597591 42.626938 
L 64.297334 47.47777 
L 69.997076 52.294566 
L 75.696819 57.078986 
L 81.396561 61.832691 
L 87.096304 66.557341 
L 92.796046 71.254596 
L 98.495789 75.926116 
L 104.195531 80.573562 
L 109.895273 85.198593 
L 115.595016 89.802872 
L 121.294758 94.388056 
L 126.994501 98.955808 
L 132.694243 103.507787 
L 138.393986 108.045653 
L 144.093728 112.571067 
L 149.793471 117.085689 
L 155.493213 121.59118 
L 161.192955 126.089199 
L 166.892698 130.581407 
L 172.59244 135.069465 
L 178.292183 139.555031 
L 183.991925 144.039768 
L 189.691668 148.525335 
L 195.39141 153.013393 
L 201.091153 157.505601 
L 206.790895 162.00362 
L 212.490637 166.509111 
L 218.19038 171.023733 
L 223.890122 175.549147 
L 229.589865 180.087013 
L 235.289607 184.638992 
L 240.98935 189.206744 
L 246.689092 193.791928 
L 252.388835 198.396206 
L 258.088577 203.021238 
L 263.788319 207.668684 
L 269.488062 212.340204 
L 275.187804 217.037459 
L 280.887547 221.762109 
L 286.587289 226.515813 
L 292.287032 231.300234 
L 297.986774 236.11703 
L 303.686517 240.967862 
L 309.386259 245.85439 
L 315.086001 250.778276 
L 320.785744 255.741178 
" clip-path="url(#p583117b63a)" style="fill: none; stroke: #6495ed; stroke-width: 2; stroke-linecap: round"/>
   </g>
   <g id="line2d_30">
    <path d="M 41.498364 68.547828 
L 47.198107 71.547915 
L 52.897849 74.569169 
L 58.597591 77.612423 
L 64.297334 80.678506 
L 69.997076 83.768248 
L 75.696819 86.88248 
L 81.396561 90.022031 
L 87.096304 93.187731 
L 92.796046 96.380412 
L 98.495789 99.600902 
L 104.195531 102.850033 
L 109.895273 106.128633 
L 115.595016 109.437535 
L 121.294758 112.777566 
L 126.994501 116.149559 
L 132.694243 119.554342 
L 138.393986 122.992746 
L 144.093728 126.465602 
L 149.793471 129.973739 
L 155.493213 133.517987 
L 161.192955 137.099177 
L 166.892698 140.718138 
L 172.59244 144.375702 
L 178.292183 148.072697 
L 183.991925 151.809955 
L 189.691668 155.588305 
L 195.39141 159.408577 
L 201.091153 163.271602 
L 206.790895 167.17821 
L 212.490637 171.129231 
L 218.19038 175.125495 
L 223.890122 179.167832 
L 229.589865 183.257072 
L 235.289607 187.394046 
L 240.98935 191.579584 
L 246.689092 195.814515 
L 252.388835 200.09967 
L 258.088577 204.43588 
L 263.788319 208.823974 
L 269.488062 213.264782 
L 275.187804 217.759134 
L 280.887547 222.307862 
L 286.587289 226.911794 
L 292.287032 231.571761 
L 297.986774 236.288594 
L 303.686517 241.063121 
L 309.386259 245.896175 
L 315.086001 250.788583 
L 320.785744 255.741178 
" clip-path="url(#p583117b63a)" style="fill: none; stroke: #00008b; stroke-width: 2; stroke-linecap: round"/>
   </g>
   <g id="line2d_31">
    <path d="M 41.498364 44.131305 
L 47.198107 48.117814 
L 52.897849 52.105154 
L 58.597591 56.094154 
L 64.297334 60.085644 
L 69.997076 64.080456 
L 75.696819 68.079417 
L 81.396561 72.08336 
L 87.096304 76.093114 
L 92.796046 80.109509 
L 98.495789 84.133375 
L 104.195531 88.165543 
L 109.895273 92.206842 
L 115.595016 96.258103 
L 121.294758 100.320156 
L 126.994501 104.393831 
L 132.694243 108.479959 
L 138.393986 112.579369 
L 144.093728 116.692891 
L 149.793471 120.821356 
L 155.493213 124.965593 
L 161.192955 129.126434 
L 166.892698 133.304708 
L 172.59244 137.501245 
L 178.292183 141.716876 
L 183.991925 145.95243 
L 189.691668 150.208737 
L 195.39141 154.486629 
L 201.091153 158.786934 
L 206.790895 163.110484 
L 212.490637 167.458108 
L 218.19038 171.830637 
L 223.890122 176.2289 
L 229.589865 180.653728 
L 235.289607 185.10595 
L 240.98935 189.586398 
L 246.689092 194.095901 
L 252.388835 198.635289 
L 258.088577 203.205393 
L 263.788319 207.807042 
L 269.488062 212.441067 
L 275.187804 217.108298 
L 280.887547 221.809565 
L 286.587289 226.545699 
L 292.287032 231.317528 
L 297.986774 236.125885 
L 303.686517 240.971598 
L 309.386259 245.855497 
L 315.086001 250.778414 
L 320.785744 255.741178 
" clip-path="url(#p583117b63a)" style="fill: none; stroke-dasharray: 7.4,3.2; stroke-dashoffset: 0; stroke: #00008b; stroke-width: 2"/>
   </g>
   <g id="line2d_32">
    <path d="M 41.498364 125.519717 
L 47.198107 130.441942 
L 52.897849 135.243796 
L 58.597591 139.926938 
L 64.297334 144.493029 
L 69.997076 148.94373 
L 75.696819 153.2807 
L 81.396561 157.505601 
L 87.096304 161.620092 
L 92.796046 165.625833 
L 98.495789 169.524485 
L 104.195531 173.317709 
L 109.895273 177.007164 
L 115.595016 180.59451 
L 121.294758 184.081409 
L 126.994501 187.46952 
L 132.694243 190.760504 
L 138.393986 193.956021 
L 144.093728 197.057731 
L 149.793471 200.067295 
L 155.493213 202.986372 
L 161.192955 205.816624 
L 166.892698 208.55971 
L 172.59244 211.217291 
L 178.292183 213.791026 
L 183.991925 216.282578 
L 189.691668 218.693605 
L 195.39141 221.025767 
L 201.091153 223.280726 
L 206.790895 225.460142 
L 212.490637 227.565674 
L 218.19038 229.598984 
L 223.890122 231.56173 
L 229.589865 233.455575 
L 235.289607 235.282178 
L 240.98935 237.043198 
L 246.689092 238.740298 
L 252.388835 240.375136 
L 258.088577 241.949374 
L 263.788319 243.464671 
L 269.488062 244.922688 
L 275.187804 246.325084 
L 280.887547 247.673522 
L 286.587289 248.96966 
L 292.287032 250.215158 
L 297.986774 251.411679 
L 303.686517 252.56088 
L 309.386259 253.664424 
L 315.086001 254.72397 
L 320.785744 255.741178 
" clip-path="url(#p583117b63a)" style="fill: none; stroke-dasharray: 2,3.3; stroke-dashoffset: 0; stroke: #6495ed; stroke-width: 2"/>
   </g>
   <g id="line2d_33">
    <path d="M 41.498364 166.213924 
L 47.198107 169.173333 
L 52.897849 172.072556 
L 58.597591 174.912423 
L 64.297334 177.693765 
L 69.997076 180.417412 
L 75.696819 183.084194 
L 81.396561 185.69494 
L 87.096304 188.250482 
L 92.796046 190.751649 
L 98.495789 193.199272 
L 104.195531 195.59418 
L 109.895273 197.937204 
L 115.595016 200.229173 
L 121.294758 202.470919 
L 126.994501 204.663271 
L 132.694243 206.80706 
L 138.393986 208.903114 
L 144.093728 210.952266 
L 149.793471 212.955344 
L 155.493213 214.913179 
L 161.192955 216.826601 
L 166.892698 218.696441 
L 172.59244 220.523528 
L 178.292183 222.308692 
L 183.991925 224.052764 
L 189.691668 225.756574 
L 195.39141 227.420952 
L 201.091153 229.046728 
L 206.790895 230.634732 
L 212.490637 232.185794 
L 218.19038 233.700745 
L 223.890122 235.180415 
L 229.589865 236.625634 
L 235.289607 238.037232 
L 240.98935 239.416038 
L 246.689092 240.762885 
L 252.388835 242.0786 
L 258.088577 243.364015 
L 263.788319 244.61996 
L 269.488062 245.847265 
L 275.187804 247.04676 
L 280.887547 248.219275 
L 286.587289 249.36564 
L 292.287032 250.486686 
L 297.986774 251.583243 
L 303.686517 252.65614 
L 309.386259 253.706208 
L 315.086001 254.734277 
L 320.785744 255.741178 
" clip-path="url(#p583117b63a)" style="fill: none; stroke-dasharray: 2,3.3; stroke-dashoffset: 0; stroke: #00008b; stroke-width: 2"/>
   </g>
   <g id="line2d_34">
    <path d="M 41.498364 141.7974 
L 47.198107 145.743232 
L 52.897849 149.60854 
L 58.597591 153.394154 
L 64.297334 157.100904 
L 69.997076 160.729619 
L 75.696819 164.281131 
L 81.396561 167.75627 
L 87.096304 171.155865 
L 92.796046 174.480746 
L 98.495789 177.731745 
L 104.195531 180.90969 
L 109.895273 184.015412 
L 115.595016 187.049742 
L 121.294758 190.013509 
L 126.994501 192.907544 
L 132.694243 195.732676 
L 138.393986 198.489736 
L 144.093728 201.179555 
L 149.793471 203.802961 
L 155.493213 206.360786 
L 161.192955 208.853859 
L 166.892698 211.283011 
L 172.59244 213.649071 
L 178.292183 215.952871 
L 183.991925 218.195239 
L 189.691668 220.377007 
L 195.39141 222.499003 
L 201.091153 224.56206 
L 206.790895 226.567006 
L 212.490637 228.514672 
L 218.19038 230.405888 
L 223.890122 232.241483 
L 229.589865 234.022289 
L 235.289607 235.749136 
L 240.98935 237.422853 
L 246.689092 239.04427 
L 252.388835 240.614219 
L 258.088577 242.133528 
L 263.788319 243.603029 
L 269.488062 245.023551 
L 275.187804 246.395924 
L 280.887547 247.720978 
L 286.587289 248.999545 
L 292.287032 250.232453 
L 297.986774 251.420534 
L 303.686517 252.564616 
L 309.386259 253.665531 
L 315.086001 254.724108 
L 320.785744 255.741178 
" clip-path="url(#p583117b63a)" style="fill: none; stroke-dasharray: 2,3.3; stroke-dashoffset: 0; stroke: #00008b; stroke-width: 2"/>
   </g>
   <g id="patch_3">
    <path d="M 41.498364 255.741178 
L 41.498364 11.575939 
" style="fill: none; stroke: #262626; stroke-width: 1.25; stroke-linejoin: miter; stroke-linecap: square"/>
   </g>
   <g id="patch_4">
    <path d="M 320.785744 255.741178 
L 320.785744 11.575939 
" style="fill: none; stroke: #262626; stroke-width: 1.25; stroke-linejoin: miter; stroke-linecap: square"/>
   </g>
   <g id="patch_5">
    <path d="M 41.498364 255.741178 
L 320.785744 255.741178 
" style="fill: none; stroke: #262626; stroke-width: 1.25; stroke-linejoin: miter; stroke-linecap: square"/>
   </g>
   <g id="patch_6">
    <path d="M 41.498364 11.575939 
L 320.785744 11.575939 
" style="fill: none; stroke: #262626; stroke-width: 1.25; stroke-linejoin: miter; stroke-linecap: square"/>
   </g>
   <g id="legend_1">
    <g id="patch_7">
     <path d="M 333.075531 135.467682 
L 522.391638 135.467682 
Q 524.307078 135.467682 524.307078 133.552242 
L 524.307078 13.396675 
Q 524.307078 11.481235 522.391638 11.481235 
L 333.075531 11.481235 
Q 331.160091 11.481235 331.160091 13.396675 
L 331.160091 133.552242 
Q 331.160091 135.467682 333.075531 135.467682 
z
" style="fill: #ffffff; opacity: 0.8; stroke: #cccccc; stroke-linejoin: miter"/>
    </g>
    <g id="patch_8">
     <path d="M 334.990971 22.468171 
L 354.145371 22.468171 
L 354.145371 15.764131 
L 334.990971 15.764131 
L 334.990971 22.468171 
z
" style="fill: none"/>
    </g>
    <g id="text_15">
     <!-- $\boldsymbol{\gamma\!=\!\sfrac{1}{2}}$ -->
     <g style="fill: #262626" transform="translate(334.990971 22.468171) scale(0.095772 -0.095772)">
      <defs>
       <path id="CMMIB10-d" d="M 2874 1210 
C 2816 1636 2509 2876 1517 2876 
C 614 2876 77 1985 77 1724 
C 77 1629 166 1629 224 1629 
C 294 1629 346 1629 378 1705 
C 518 2113 1050 2176 1382 2176 
C 1734 2176 2157 2094 2374 1789 
C 2547 1533 2598 1012 2598 750 
C 2598 496 2586 451 2541 318 
C 2368 -198 2170 -885 2170 -1121 
C 2170 -1172 2170 -1344 2323 -1344 
C 2477 -1344 2560 -1108 2586 -1032 
C 2637 -879 2803 -306 2880 350 
C 2886 426 2886 439 2906 490 
C 3078 966 3386 1705 3840 2520 
C 3878 2590 3949 2711 3949 2736 
C 3949 2825 3859 2825 3802 2825 
C 3738 2825 3712 2825 3680 2800 
C 3667 2787 3328 2234 2874 1210 
z
" transform="scale(0.015625)"/>
       <path id="CMBX12-3d" d="M 4934 2083 
C 5030 2083 5197 2083 5197 2261 
C 5197 2432 5024 2432 4941 2432 
L 653 2432 
C 570 2432 397 2432 397 2261 
C 397 2083 563 2083 659 2083 
L 4934 2083 
z
M 4941 704 
C 5024 704 5197 704 5197 876 
C 5197 1054 5030 1054 4934 1054 
L 659 1054 
C 563 1054 397 1054 397 876 
C 397 704 570 704 653 704 
L 4941 704 
z
" transform="scale(0.015625)"/>
       <path id="CMBX12-31" d="M 2214 3975 
C 2214 4160 2202 4160 1997 4160 
C 1523 3776 813 3776 672 3776 
L 550 3776 
L 550 3503 
L 672 3503 
C 896 3503 1235 3541 1491 3624 
L 1491 267 
L 602 267 
L 602 0 
C 870 0 1542 0 1843 0 
C 2144 0 2822 0 3091 0 
L 3091 267 
L 2214 267 
L 2214 3975 
z
" transform="scale(0.015625)"/>
       <path id="CMMIB10-3d" d="M 3219 4431 
C 3264 4533 3264 4545 3264 4571 
C 3264 4692 3162 4768 3072 4768 
C 2938 4768 2899 4673 2861 4577 
L 454 -1262 
C 410 -1364 410 -1377 410 -1402 
C 410 -1523 512 -1600 602 -1600 
C 736 -1600 781 -1491 813 -1415 
L 3219 4431 
z
" transform="scale(0.015625)"/>
       <path id="CMBX12-32" d="M 3232 1368 
L 2963 1368 
C 2944 1234 2899 858 2803 795 
C 2752 750 2253 750 2157 750 
L 1165 750 
C 1408 954 1990 1438 2086 1509 
C 2797 2038 3232 2362 3232 2974 
C 3232 3725 2547 4178 1702 4178 
C 979 4178 358 3770 358 3165 
C 358 2827 634 2732 781 2732 
C 979 2732 1210 2865 1210 3159 
C 1210 3427 1011 3560 813 3586 
C 1069 3879 1408 3904 1542 3904 
C 2131 3904 2413 3427 2413 2968 
C 2413 2471 2074 2013 1811 1739 
L 422 293 
C 358 235 358 223 358 108 
L 358 0 
L 3046 0 
L 3232 1368 
z
" transform="scale(0.015625)"/>
      </defs>
      <use xlink:href="#CMMIB10-d" transform="scale(0.996264)"/>
      <use xlink:href="#CMBX12-3d" transform="translate(77.877485 0) scale(0.996264)"/>
      <use xlink:href="#CMBX12-31" transform="translate(177.780558 22.41594) scale(0.697385)"/>
      <use xlink:href="#CMMIB10-3d" transform="translate(210.643467 0) scale(0.996264)"/>
      <use xlink:href="#CMBX12-32" transform="translate(255.198371 0) scale(0.697385)"/>
     </g>
    </g>
    <g id="line2d_35">
     <path d="M 334.990971 32.994133 
L 344.568171 32.994133 
L 354.145371 32.994133 
" style="fill: none; stroke: #9acd32; stroke-width: 2; stroke-linecap: round"/>
    </g>
    <g id="line2d_36">
     <path d="M 334.990971 46.342045 
L 344.568171 46.342045 
L 354.145371 46.342045 
" style="fill: none; stroke: #556b2f; stroke-width: 2; stroke-linecap: round"/>
    </g>
    <g id="line2d_37">
     <path d="M 334.990971 59.689956 
L 344.568171 59.689956 
L 354.145371 59.689956 
" style="fill: none; stroke: #cd5c5c; stroke-width: 2; stroke-linecap: round"/>
    </g>
    <g id="line2d_38">
     <path d="M 334.990971 73.037867 
L 344.568171 73.037867 
L 354.145371 73.037867 
" style="fill: none; stroke: #800000; stroke-width: 2; stroke-linecap: round"/>
    </g>
    <g id="line2d_39">
     <path d="M 334.990971 86.385778 
L 344.568171 86.385778 
L 354.145371 86.385778 
" style="fill: none; stroke: #ffd700; stroke-width: 2; stroke-linecap: round"/>
    </g>
    <g id="line2d_40">
     <path d="M 334.990971 99.733689 
L 344.568171 99.733689 
L 354.145371 99.733689 
" style="fill: none; stroke: #daa520; stroke-width: 2; stroke-linecap: round"/>
    </g>
    <g id="line2d_41">
     <path d="M 334.990971 113.0816 
L 344.568171 113.0816 
L 354.145371 113.0816 
" style="fill: none; stroke: #6495ed; stroke-width: 2; stroke-linecap: round"/>
    </g>
    <g id="line2d_42">
     <path d="M 334.990971 126.429511 
L 344.568171 126.429511 
L 354.145371 126.429511 
" style="fill: none; stroke: #00008b; stroke-width: 2; stroke-linecap: round"/>
    </g>
    <g id="patch_9">
     <path d="M 371.808982 22.468171 
L 390.963382 22.468171 
L 390.963382 15.764131 
L 371.808982 15.764131 
L 371.808982 22.468171 
z
" style="fill: none"/>
    </g>
    <g id="text_16">
     <!-- $\boldsymbol{\gamma\!=\!1}$ -->
     <g style="fill: #262626" transform="translate(371.808982 22.468171) scale(0.095772 -0.095772)">
      <use xlink:href="#CMMIB10-d" transform="scale(0.996264)"/>
      <use xlink:href="#CMBX12-3d" transform="translate(77.877485 0) scale(0.996264)"/>
      <use xlink:href="#CMBX12-31" transform="translate(177.780558 0) scale(0.996264)"/>
     </g>
    </g>
    <g id="patch_10">
     <path d="M 371.808982 35.816082 
L 390.963382 35.816082 
L 390.963382 29.112042 
L 371.808982 29.112042 
L 371.808982 35.816082 
z
" style="fill: none"/>
    </g>
    <g id="line2d_43">
     <path d="M 371.808982 45.811974 
L 381.386182 45.811974 
L 390.963382 45.811974 
" style="fill: none; stroke-dasharray: 7.4,3.2; stroke-dashoffset: 0; stroke: #556b2f; stroke-width: 2"/>
    </g>
    <g id="line2d_44">
     <path d="M 371.808982 59.159885 
L 381.386182 59.159885 
L 390.963382 59.159885 
" style="fill: none; stroke-dasharray: 7.4,3.2; stroke-dashoffset: 0; stroke: #cd5c5c; stroke-width: 2"/>
    </g>
    <g id="patch_11">
     <path d="M 371.808982 75.859816 
L 390.963382 75.859816 
L 390.963382 69.155776 
L 371.808982 69.155776 
L 371.808982 75.859816 
z
" style="fill: none"/>
    </g>
    <g id="line2d_45">
     <path d="M 371.808982 85.855707 
L 381.386182 85.855707 
L 390.963382 85.855707 
" style="fill: none; stroke-dasharray: 7.4,3.2; stroke-dashoffset: 0; stroke: #ffd700; stroke-width: 2"/>
    </g>
    <g id="line2d_46">
     <path d="M 371.808982 99.203618 
L 381.386182 99.203618 
L 390.963382 99.203618 
" style="fill: none; stroke-dasharray: 7.4,3.2; stroke-dashoffset: 0; stroke: #daa520; stroke-width: 2"/>
    </g>
    <g id="patch_12">
     <path d="M 371.808982 115.903549 
L 390.963382 115.903549 
L 390.963382 109.199509 
L 371.808982 109.199509 
L 371.808982 115.903549 
z
" style="fill: none"/>
    </g>
    <g id="line2d_47">
     <path d="M 371.808982 125.89944 
L 381.386182 125.89944 
L 390.963382 125.89944 
" style="fill: none; stroke-dasharray: 7.4,3.2; stroke-dashoffset: 0; stroke: #00008b; stroke-width: 2"/>
    </g>
    <g id="patch_13">
     <path d="M 400.840883 22.468171 
L 419.995283 22.468171 
L 419.995283 15.764131 
L 400.840883 15.764131 
L 400.840883 22.468171 
z
" style="fill: none"/>
    </g>
    <g id="text_17">
     <!-- $\boldsymbol{\delta\!=\!0}$ -->
     <g style="fill: #262626" transform="translate(400.840883 22.468171) scale(0.095772 -0.095772)">
      <defs>
       <path id="CMMIB10-e" d="M 1818 2841 
C 685 2580 294 1606 294 1044 
C 294 267 909 -64 1594 -64 
C 2438 -64 3046 949 3046 1974 
C 3046 2549 2822 2822 2554 3071 
C 2272 3338 1709 3861 1709 4084 
C 1709 4116 1773 4288 2010 4288 
C 2221 4288 2374 4174 2483 4098 
C 2605 4001 2803 3855 2944 3855 
C 3136 3855 3283 4039 3283 4198 
C 3283 4384 3181 4409 2835 4479 
C 2694 4511 2323 4587 2157 4587 
C 1811 4587 1434 4344 1434 3886 
C 1434 3530 1670 3103 1818 2841 
z
M 1958 2594 
C 2118 2346 2317 1990 2317 1545 
C 2317 1265 2144 171 1613 171 
C 1542 171 1299 171 1120 330 
C 960 483 960 724 960 801 
C 960 1131 1139 1748 1254 1983 
C 1344 2149 1536 2460 1958 2594 
z
" transform="scale(0.015625)"/>
       <path id="CMBX12-30" d="M 3309 2038 
C 3309 2648 3309 4178 1798 4178 
C 282 4178 282 2654 282 2038 
C 282 1428 282 -64 1792 -64 
C 3302 -64 3309 1409 3309 2038 
z
M 1798 146 
C 1594 146 1440 228 1312 362 
C 1152 521 1050 621 1050 2114 
C 1050 2559 1050 2964 1101 3295 
C 1190 3924 1651 3968 1792 3968 
C 1997 3968 2394 3873 2483 3340 
C 2541 3015 2541 2501 2541 2114 
C 2541 615 2445 527 2253 336 
C 2125 209 1952 146 1798 146 
z
" transform="scale(0.015625)"/>
      </defs>
      <use xlink:href="#CMMIB10-e" transform="scale(0.996264)"/>
      <use xlink:href="#CMBX12-3d" transform="translate(68.561924 0) scale(0.996264)"/>
      <use xlink:href="#CMBX12-30" transform="translate(168.464997 0) scale(0.996264)"/>
     </g>
    </g>
    <g id="patch_14">
     <path d="M 400.840883 35.816082 
L 419.995283 35.816082 
L 419.995283 29.112042 
L 400.840883 29.112042 
L 400.840883 35.816082 
z
" style="fill: none"/>
    </g>
    <g id="patch_15">
     <path d="M 400.840883 49.163994 
L 419.995283 49.163994 
L 419.995283 42.459954 
L 400.840883 42.459954 
L 400.840883 49.163994 
z
" style="fill: none"/>
    </g>
    <g id="patch_16">
     <path d="M 400.840883 62.511905 
L 419.995283 62.511905 
L 419.995283 55.807865 
L 400.840883 55.807865 
L 400.840883 62.511905 
z
" style="fill: none"/>
    </g>
    <g id="patch_17">
     <path d="M 400.840883 75.859816 
L 419.995283 75.859816 
L 419.995283 69.155776 
L 400.840883 69.155776 
L 400.840883 75.859816 
z
" style="fill: none"/>
    </g>
    <g id="patch_18">
     <path d="M 400.840883 89.207727 
L 419.995283 89.207727 
L 419.995283 82.503687 
L 400.840883 82.503687 
L 400.840883 89.207727 
z
" style="fill: none"/>
    </g>
    <g id="patch_19">
     <path d="M 400.840883 102.555638 
L 419.995283 102.555638 
L 419.995283 95.851598 
L 400.840883 95.851598 
L 400.840883 102.555638 
z
" style="fill: none"/>
    </g>
    <g id="line2d_48">
     <path d="M 400.840883 112.551529 
L 410.418083 112.551529 
L 419.995283 112.551529 
" style="fill: none; stroke-dasharray: 2,3.3; stroke-dashoffset: 0; stroke: #6495ed; stroke-width: 2"/>
    </g>
    <g id="line2d_49">
     <path d="M 400.840883 125.89944 
L 410.418083 125.89944 
L 419.995283 125.89944 
" style="fill: none; stroke-dasharray: 2,3.3; stroke-dashoffset: 0; stroke: #00008b; stroke-width: 2"/>
    </g>
    <g id="patch_20">
     <path d="M 428.829166 22.468171 
L 447.983566 22.468171 
L 447.983566 15.764131 
L 428.829166 15.764131 
L 428.829166 22.468171 
z
" style="fill: none"/>
    </g>
    <g id="text_18">
     <!-- \textbf{Func.} -->
     <g style="fill: #262626" transform="translate(428.829166 22.468171) scale(0.095772 -0.095772)">
      <defs>
       <path id="CMBX12-46" d="M 4032 4306 
L 243 4306 
L 243 4032 
L 922 4032 
L 922 267 
L 243 267 
L 243 0 
C 429 0 1158 0 1395 0 
C 1734 0 2304 0 2618 0 
L 2618 267 
L 1766 267 
L 1766 2030 
L 2118 2030 
C 2733 2030 2784 1748 2784 1280 
L 3053 1280 
L 3053 3042 
L 2784 3042 
C 2784 2581 2733 2304 2118 2304 
L 1766 2304 
L 1766 4032 
L 2682 4032 
C 3699 4032 3859 3576 3949 2821 
L 4218 2821 
L 4032 4306 
z
" transform="scale(0.015625)"/>
       <path id="CMBX12-75" d="M 2259 2859 
L 2259 2560 
C 2656 2560 2701 2560 2701 2312 
L 2701 1056 
C 2701 569 2413 178 1914 178 
C 1434 178 1408 337 1408 684 
L 1408 2859 
L 269 2859 
L 269 2560 
C 666 2560 710 2560 710 2312 
L 710 794 
C 710 153 1139 -32 1824 -32 
C 1978 -32 2451 -32 2726 496 
L 2733 496 
L 2733 0 
L 3840 0 
L 3840 292 
C 3443 292 3398 292 3398 540 
L 3398 2859 
L 2259 2859 
z
" transform="scale(0.015625)"/>
       <path id="CMBX12-6e" d="M 3398 1924 
C 3398 2525 3136 2834 2432 2834 
C 1971 2834 1574 2615 1357 2143 
L 1350 2143 
L 1350 2816 
L 269 2816 
L 269 2517 
C 666 2517 710 2517 710 2270 
L 710 260 
L 269 260 
L 269 -13 
C 416 0 877 0 1056 0 
C 1235 0 1702 0 1850 -13 
L 1850 260 
L 1408 260 
L 1408 1607 
C 1408 2289 1920 2624 2330 2624 
C 2566 2624 2701 2473 2701 1993 
L 2701 260 
L 2259 260 
L 2259 -13 
C 2406 0 2867 0 3046 0 
C 3226 0 3693 0 3840 -13 
L 3840 260 
L 3398 260 
L 3398 1924 
z
" transform="scale(0.015625)"/>
       <path id="CMBX12-63" d="M 2995 753 
C 2995 829 2925 829 2861 829 
C 2758 829 2752 823 2720 747 
C 2675 625 2502 197 1914 197 
C 1011 197 1011 1166 1011 1453 
C 1011 1829 1018 2664 1856 2664 
C 1901 2664 2278 2664 2278 2632 
C 2278 2624 2272 2618 2259 2612 
C 2240 2593 2157 2496 2157 2334 
C 2157 2064 2374 1954 2534 1954 
C 2669 1954 2912 2039 2912 2346 
C 2912 2880 2176 2880 1830 2880 
C 691 2880 243 2145 243 1414 
C 243 552 851 -32 1792 -32 
C 2797 -32 2995 708 2995 753 
z
" transform="scale(0.015625)"/>
       <path id="CMBX12-2e" d="M 1459 458 
C 1459 718 1248 916 998 916 
C 749 916 538 718 538 458 
C 538 197 749 0 998 0 
C 1248 0 1459 197 1459 458 
z
" transform="scale(0.015625)"/>
      </defs>
      <use xlink:href="#CMBX12-46" transform="scale(0.996264)"/>
      <use xlink:href="#CMBX12-75" transform="translate(61.113445 0) scale(0.996264)"/>
      <use xlink:href="#CMBX12-6e" transform="translate(123.379946 0) scale(0.996264)"/>
      <use xlink:href="#CMBX12-63" transform="translate(185.646447 0) scale(0.996264)"/>
      <use xlink:href="#CMBX12-2e" transform="translate(235.459647 0) scale(0.996264)"/>
     </g>
    </g>
    <g id="patch_21">
     <path d="M 428.829166 35.816082 
L 447.983566 35.816082 
L 447.983566 29.112042 
L 428.829166 29.112042 
L 428.829166 35.816082 
z
" style="fill: none"/>
    </g>
    <g id="text_19">
     <!-- LD1 -->
     <g style="fill: #262626" transform="translate(428.829166 35.816082) scale(0.095772 -0.095772)">
      <defs>
       <path id="CMR17-4c" d="M 3469 1615 
L 3354 1615 
C 3302 983 3219 166 2125 166 
L 1530 166 
C 1274 166 1261 197 1261 414 
L 1261 3898 
C 1261 4129 1274 4192 1760 4192 
L 1901 4192 
L 1901 4352 
C 1638 4352 1331 4352 1069 4352 
C 870 4352 512 4352 326 4352 
L 326 4192 
C 768 4192 838 4192 838 3905 
L 838 452 
C 838 166 768 166 326 166 
L 326 0 
L 3315 0 
L 3469 1615 
z
" transform="scale(0.015625)"/>
       <path id="CMR17-44" d="M 333 4352 
L 333 4186 
C 774 4186 845 4186 845 3900 
L 845 452 
C 845 166 774 166 333 166 
L 333 0 
L 2368 0 
C 3398 0 4224 943 4224 2141 
C 4224 3346 3411 4352 2368 4352 
L 333 4352 
z
M 1523 166 
C 1267 166 1254 197 1254 414 
L 1254 3938 
C 1254 4155 1267 4186 1523 4186 
L 2240 4186 
C 2771 4186 3750 3874 3750 2141 
C 3750 1242 3488 879 3366 707 
C 3213 510 2848 166 2240 166 
L 1523 166 
z
" transform="scale(0.015625)"/>
      </defs>
      <use xlink:href="#CMR17-4c" transform="scale(0.996264)"/>
      <use xlink:href="#CMR17-44" transform="translate(57.381408 0) scale(0.996264)"/>
      <use xlink:href="#CMR17-31" transform="translate(127.774964 0) scale(0.996264)"/>
     </g>
    </g>
    <g id="patch_22">
     <path d="M 428.829166 49.163994 
L 447.983566 49.163994 
L 447.983566 42.459954 
L 428.829166 42.459954 
L 428.829166 49.163994 
z
" style="fill: none"/>
    </g>
    <g id="text_20">
     <!-- LD1 -->
     <g style="fill: #262626" transform="translate(428.829166 49.163994) scale(0.095772 -0.095772)">
      <use xlink:href="#CMR17-4c" transform="scale(0.996264)"/>
      <use xlink:href="#CMR17-44" transform="translate(57.381408 0) scale(0.996264)"/>
      <use xlink:href="#CMR17-31" transform="translate(127.774964 0) scale(0.996264)"/>
     </g>
    </g>
    <g id="patch_23">
     <path d="M 428.829166 62.511905 
L 447.983566 62.511905 
L 447.983566 55.807865 
L 428.829166 55.807865 
L 428.829166 62.511905 
z
" style="fill: none"/>
    </g>
    <g id="text_21">
     <!-- LD2 -->
     <g style="fill: #262626" transform="translate(428.829166 62.511905) scale(0.095772 -0.095772)">
      <use xlink:href="#CMR17-4c" transform="scale(0.996264)"/>
      <use xlink:href="#CMR17-44" transform="translate(57.381408 0) scale(0.996264)"/>
      <use xlink:href="#CMR17-32" transform="translate(127.774964 0) scale(0.996264)"/>
     </g>
    </g>
    <g id="patch_24">
     <path d="M 428.829166 75.859816 
L 447.983566 75.859816 
L 447.983566 69.155776 
L 428.829166 69.155776 
L 428.829166 75.859816 
z
" style="fill: none"/>
    </g>
    <g id="text_22">
     <!-- LD2 -->
     <g style="fill: #262626" transform="translate(428.829166 75.859816) scale(0.095772 -0.095772)">
      <use xlink:href="#CMR17-4c" transform="scale(0.996264)"/>
      <use xlink:href="#CMR17-44" transform="translate(57.381408 0) scale(0.996264)"/>
      <use xlink:href="#CMR17-32" transform="translate(127.774964 0) scale(0.996264)"/>
     </g>
    </g>
    <g id="patch_25">
     <path d="M 428.829166 89.207727 
L 447.983566 89.207727 
L 447.983566 82.503687 
L 428.829166 82.503687 
L 428.829166 89.207727 
z
" style="fill: none"/>
    </g>
    <g id="text_23">
     <!-- LD3 -->
     <g style="fill: #262626" transform="translate(428.829166 89.207727) scale(0.095772 -0.095772)">
      <use xlink:href="#CMR17-4c" transform="scale(0.996264)"/>
      <use xlink:href="#CMR17-44" transform="translate(57.381408 0) scale(0.996264)"/>
      <use xlink:href="#CMR17-33" transform="translate(127.774964 0) scale(0.996264)"/>
     </g>
    </g>
    <g id="patch_26">
     <path d="M 428.829166 102.555638 
L 447.983566 102.555638 
L 447.983566 95.851598 
L 428.829166 95.851598 
L 428.829166 102.555638 
z
" style="fill: none"/>
    </g>
    <g id="text_24">
     <!-- LD3 -->
     <g style="fill: #262626" transform="translate(428.829166 102.555638) scale(0.095772 -0.095772)">
      <use xlink:href="#CMR17-4c" transform="scale(0.996264)"/>
      <use xlink:href="#CMR17-44" transform="translate(57.381408 0) scale(0.996264)"/>
      <use xlink:href="#CMR17-33" transform="translate(127.774964 0) scale(0.996264)"/>
     </g>
    </g>
    <g id="patch_27">
     <path d="M 428.829166 115.903549 
L 447.983566 115.903549 
L 447.983566 109.199509 
L 428.829166 109.199509 
L 428.829166 115.903549 
z
" style="fill: none"/>
    </g>
    <g id="text_25">
     <!-- LD3 -->
     <g style="fill: #262626" transform="translate(428.829166 115.903549) scale(0.095772 -0.095772)">
      <use xlink:href="#CMR17-4c" transform="scale(0.996264)"/>
      <use xlink:href="#CMR17-44" transform="translate(57.381408 0) scale(0.996264)"/>
      <use xlink:href="#CMR17-33" transform="translate(127.774964 0) scale(0.996264)"/>
     </g>
    </g>
    <g id="patch_28">
     <path d="M 428.829166 129.25146 
L 447.983566 129.25146 
L 447.983566 122.54742 
L 428.829166 122.54742 
L 428.829166 129.25146 
z
" style="fill: none"/>
    </g>
    <g id="text_26">
     <!-- LD3 -->
     <g style="fill: #262626" transform="translate(428.829166 129.25146) scale(0.095772 -0.095772)">
      <use xlink:href="#CMR17-4c" transform="scale(0.996264)"/>
      <use xlink:href="#CMR17-44" transform="translate(57.381408 0) scale(0.996264)"/>
      <use xlink:href="#CMR17-33" transform="translate(127.774964 0) scale(0.996264)"/>
     </g>
    </g>
    <g id="patch_29">
     <path d="M 460.47176 22.468171 
L 479.62616 22.468171 
L 479.62616 15.764131 
L 460.47176 15.764131 
L 460.47176 22.468171 
z
" style="fill: none"/>
    </g>
    <g id="text_27">
     <!-- \textbf{SPD} -->
     <g style="fill: #262626" transform="translate(460.47176 22.468171) scale(0.095772 -0.095772)">
      <defs>
       <path id="CMBX12-53" d="M 1626 2782 
C 992 2920 973 3376 973 3465 
C 973 3787 1184 4162 1805 4162 
C 2426 4162 2982 3863 3117 3030 
C 3136 2896 3136 2896 3258 2896 
C 3392 2896 3392 2915 3392 3060 
L 3392 4252 
C 3392 4372 3392 4417 3296 4417 
C 3251 4417 3232 4411 3174 4347 
L 2899 4035 
C 2739 4169 2419 4416 1798 4416 
C 883 4416 397 3846 397 3156 
C 397 2732 627 2434 717 2345 
C 1050 2016 1229 1978 1894 1832 
C 2534 1693 2611 1680 2752 1548 
C 2835 1465 3021 1288 3021 965 
C 3021 692 2886 192 2170 192 
C 1606 192 717 382 666 1307 
C 659 1421 659 1440 531 1440 
C 397 1440 397 1421 397 1275 
L 397 83 
C 397 -38 397 -82 493 -82 
C 538 -82 544 -76 608 -19 
C 678 51 736 134 896 293 
C 1267 1 1792 -81 2176 -81 
C 3174 -81 3597 590 3597 1262 
C 3597 1856 3200 2426 2502 2584 
L 1626 2782 
z
" transform="scale(0.015625)"/>
       <path id="CMBX12-50" d="M 1766 1934 
L 2854 1934 
C 3923 1934 4518 2474 4518 3128 
C 4518 3812 3910 4352 2854 4352 
L 243 4352 
L 243 4078 
L 922 4078 
L 922 267 
L 243 267 
L 243 0 
C 429 0 1114 0 1344 0 
C 1574 0 2259 0 2445 0 
L 2445 267 
L 1766 267 
L 1766 1934 
z
M 2624 4078 
C 3616 4078 3616 3558 3616 3127 
C 3616 2709 3616 2176 2624 2176 
L 1734 2176 
L 1734 4078 
L 2624 4078 
z
" transform="scale(0.015625)"/>
       <path id="CMBX12-44" d="M 243 4370 
L 243 4096 
L 922 4096 
L 922 273 
L 243 273 
L 243 0 
L 2938 0 
C 4166 0 5114 783 5114 2147 
C 5114 3587 4141 4370 2938 4370 
L 243 4370 
z
M 1734 273 
L 1734 4096 
L 2694 4096 
C 3251 4096 3699 3880 3936 3548 
C 4122 3287 4243 2975 4243 2153 
C 4243 1407 4147 1077 3923 777 
C 3699 483 3270 273 2694 273 
L 1734 273 
z
" transform="scale(0.015625)"/>
      </defs>
      <use xlink:href="#CMBX12-53" transform="scale(0.996264)"/>
      <use xlink:href="#CMBX12-50" transform="translate(62.266501 0) scale(0.996264)"/>
      <use xlink:href="#CMBX12-44" transform="translate(138.831311 0) scale(0.996264)"/>
     </g>
    </g>
    <g id="patch_30">
     <path d="M 460.47176 35.816082 
L 479.62616 35.816082 
L 479.62616 29.112042 
L 460.47176 29.112042 
L 460.47176 35.816082 
z
" style="fill: none"/>
    </g>
    <g id="text_28">
     <!-- No -->
     <g style="fill: #262626" transform="translate(460.47176 35.816082) scale(0.095772 -0.095772)">
      <defs>
       <path id="CMR17-4e" d="M 1312 4250 
C 1267 4320 1261 4320 1139 4320 
L 326 4320 
L 326 4160 
L 448 4160 
C 704 4160 819 4129 838 4122 
L 838 610 
C 838 451 838 153 326 153 
L 326 -13 
C 474 0 742 0 902 0 
C 1062 0 1331 0 1478 -13 
L 1478 153 
C 966 153 966 451 966 610 
L 966 4033 
C 1011 3995 1011 3982 1056 3919 
L 3430 76 
C 3475 0 3494 0 3526 0 
C 3590 0 3590 19 3590 139 
L 3590 3705 
C 3590 3863 3590 4160 4102 4160 
L 4102 4326 
C 3955 4320 3686 4320 3526 4320 
C 3366 4320 3098 4320 2950 4326 
L 2950 4160 
C 3462 4160 3462 3862 3462 3703 
L 3462 763 
L 1312 4250 
z
" transform="scale(0.015625)"/>
      </defs>
      <use xlink:href="#CMR17-4e" transform="scale(0.996264)"/>
      <use xlink:href="#CMR17-6f" transform="translate(69.07243 0) scale(0.996264)"/>
     </g>
    </g>
    <g id="patch_31">
     <path d="M 460.47176 49.163994 
L 479.62616 49.163994 
L 479.62616 42.459954 
L 460.47176 42.459954 
L 460.47176 49.163994 
z
" style="fill: none"/>
    </g>
    <g id="text_29">
     <!-- Yes -->
     <g style="fill: #262626" transform="translate(460.47176 49.163994) scale(0.095772 -0.095772)">
      <defs>
       <path id="CMR17-59" d="M 3706 3766 
C 3955 4160 4301 4160 4416 4160 
L 4416 4332 
C 4269 4319 4102 4319 3942 4319 
C 3782 4319 3526 4319 3373 4332 
L 3373 4160 
C 3533 4160 3616 4077 3616 3957 
C 3616 3881 3584 3830 3533 3747 
L 2381 1912 
L 1120 3912 
C 1075 3988 1069 3994 1069 4039 
C 1069 4160 1293 4160 1382 4160 
L 1382 4319 
C 1178 4319 864 4319 653 4319 
C 486 4319 166 4319 13 4332 
L 13 4160 
C 378 4160 480 4141 595 3958 
L 2010 1728 
L 2010 445 
C 2010 160 1939 160 1498 160 
L 1498 0 
C 1683 0 2016 0 2214 0 
C 2413 0 2752 0 2938 0 
L 2938 160 
C 2477 160 2419 160 2419 471 
L 2419 1728 
L 3706 3766 
z
" transform="scale(0.015625)"/>
       <path id="CMR17-73" d="M 1978 2697 
C 1978 2813 1971 2819 1933 2819 
C 1907 2819 1901 2813 1824 2717 
C 1805 2691 1747 2626 1728 2601 
C 1523 2819 1235 2819 1126 2819 
C 416 2819 160 2447 160 2076 
C 160 1498 813 1365 998 1325 
C 1402 1243 1542 1217 1677 1101 
C 1760 1025 1901 884 1901 654 
C 1901 384 1747 38 1158 38 
C 602 38 403 460 288 1021 
C 269 1110 269 1117 218 1117 
C 166 1117 160 1110 160 983 
L 160 63 
C 160 -51 166 -58 205 -58 
C 237 -58 243 -51 275 0 
C 314 57 410 211 448 276 
C 576 103 800 -64 1158 -64 
C 1792 -64 2131 283 2131 784 
C 2131 1112 1958 1285 1875 1362 
C 1683 1561 1459 1606 1190 1657 
C 838 1735 390 1825 390 2217 
C 390 2383 480 2737 1126 2737 
C 1811 2737 1850 2094 1862 1888 
C 1869 1856 1901 1849 1920 1849 
C 1978 1849 1978 1869 1978 1978 
L 1978 2697 
z
" transform="scale(0.015625)"/>
      </defs>
      <use xlink:href="#CMR17-59" transform="scale(0.996264)"/>
      <use xlink:href="#CMR17-65" transform="translate(61.265174 0) scale(0.996264)"/>
      <use xlink:href="#CMR17-73" transform="translate(101.750835 0) scale(0.996264)"/>
     </g>
    </g>
    <g id="patch_32">
     <path d="M 460.47176 62.511905 
L 479.62616 62.511905 
L 479.62616 55.807865 
L 460.47176 55.807865 
L 460.47176 62.511905 
z
" style="fill: none"/>
    </g>
    <g id="text_30">
     <!-- - - - -->
     <g style="fill: #262626" transform="translate(460.47176 62.511905) scale(0.095772 -0.095772)">
      <defs>
       <path id="CMR17-7c" d="M 5939 1664 
L 5939 1766 
L -77 1766 
L -77 1664 
L 5939 1664 
z
" transform="scale(0.015625)"/>
      </defs>
      <use xlink:href="#CMR17-7c" transform="scale(0.996264)"/>
     </g>
    </g>
    <g id="patch_33">
     <path d="M 460.47176 75.859816 
L 479.62616 75.859816 
L 479.62616 69.155776 
L 460.47176 69.155776 
L 460.47176 75.859816 
z
" style="fill: none"/>
    </g>
    <g id="text_31">
     <!-- - - - -->
     <g style="fill: #262626" transform="translate(460.47176 75.859816) scale(0.095772 -0.095772)">
      <use xlink:href="#CMR17-7c" transform="scale(0.996264)"/>
     </g>
    </g>
    <g id="patch_34">
     <path d="M 460.47176 89.207727 
L 479.62616 89.207727 
L 479.62616 82.503687 
L 460.47176 82.503687 
L 460.47176 89.207727 
z
" style="fill: none"/>
    </g>
    <g id="text_32">
     <!-- No -->
     <g style="fill: #262626" transform="translate(460.47176 89.207727) scale(0.095772 -0.095772)">
      <use xlink:href="#CMR17-4e" transform="scale(0.996264)"/>
      <use xlink:href="#CMR17-6f" transform="translate(69.07243 0) scale(0.996264)"/>
     </g>
    </g>
    <g id="patch_35">
     <path d="M 460.47176 102.555638 
L 479.62616 102.555638 
L 479.62616 95.851598 
L 460.47176 95.851598 
L 460.47176 102.555638 
z
" style="fill: none"/>
    </g>
    <g id="text_33">
     <!-- Yes -->
     <g style="fill: #262626" transform="translate(460.47176 102.555638) scale(0.095772 -0.095772)">
      <use xlink:href="#CMR17-59" transform="scale(0.996264)"/>
      <use xlink:href="#CMR17-65" transform="translate(61.265174 0) scale(0.996264)"/>
      <use xlink:href="#CMR17-73" transform="translate(101.750835 0) scale(0.996264)"/>
     </g>
    </g>
    <g id="patch_36">
     <path d="M 460.47176 115.903549 
L 479.62616 115.903549 
L 479.62616 109.199509 
L 460.47176 109.199509 
L 460.47176 115.903549 
z
" style="fill: none"/>
    </g>
    <g id="text_34">
     <!-- No -->
     <g style="fill: #262626" transform="translate(460.47176 115.903549) scale(0.095772 -0.095772)">
      <use xlink:href="#CMR17-4e" transform="scale(0.996264)"/>
      <use xlink:href="#CMR17-6f" transform="translate(69.07243 0) scale(0.996264)"/>
     </g>
    </g>
    <g id="patch_37">
     <path d="M 460.47176 129.25146 
L 479.62616 129.25146 
L 479.62616 122.54742 
L 460.47176 122.54742 
L 460.47176 129.25146 
z
" style="fill: none"/>
    </g>
    <g id="text_35">
     <!-- Yes -->
     <g style="fill: #262626" transform="translate(460.47176 129.25146) scale(0.095772 -0.095772)">
      <use xlink:href="#CMR17-59" transform="scale(0.996264)"/>
      <use xlink:href="#CMR17-65" transform="translate(61.265174 0) scale(0.996264)"/>
      <use xlink:href="#CMR17-73" transform="translate(101.750835 0) scale(0.996264)"/>
     </g>
    </g>
    <g id="patch_38">
     <path d="M 487.892972 22.468171 
L 507.047372 22.468171 
L 507.047372 15.764131 
L 487.892972 15.764131 
L 487.892972 22.468171 
z
" style="fill: none"/>
    </g>
    <g id="text_36">
     <!-- \textbf{Ortho.} -->
     <g style="fill: #262626" transform="translate(487.892972 22.468171) scale(0.095772 -0.095772)">
      <defs>
       <path id="CMBX12-4f" d="M 5005 2132 
C 5005 3485 4122 4416 2701 4416 
C 1274 4416 397 3478 397 2132 
C 397 786 1293 -113 2701 -113 
C 4109 -113 5005 786 5005 2132 
z
M 2701 128 
C 2285 128 1882 326 1638 690 
C 1331 1156 1299 1756 1299 2222 
C 1299 2611 1318 3147 1581 3581 
C 1862 4027 2323 4187 2701 4187 
C 3219 4187 3603 3913 3789 3626 
C 4026 3256 4102 2860 4102 2222 
C 4102 1589 4032 1060 3712 620 
C 3552 403 3200 128 2701 128 
z
" transform="scale(0.015625)"/>
       <path id="CMBX12-72" d="M 1331 1411 
C 1331 1619 1376 2624 2125 2624 
C 2035 2555 1990 2448 1990 2336 
C 1990 2079 2202 1972 2362 1972 
C 2522 1972 2733 2079 2733 2337 
C 2733 2658 2400 2834 2093 2834 
C 1587 2834 1370 2401 1280 2137 
L 1274 2137 
L 1274 2816 
L 224 2816 
L 224 2517 
C 621 2517 666 2517 666 2270 
L 666 260 
L 224 260 
L 224 -13 
C 371 0 851 0 1030 0 
C 1216 0 1734 0 1888 -13 
L 1888 260 
L 1331 260 
L 1331 1411 
z
" transform="scale(0.015625)"/>
       <path id="CMBX12-74" d="M 1350 2560 
L 2272 2560 
L 2272 2833 
L 1350 2833 
L 1350 4032 
L 1082 4032 
C 1075 3405 768 2776 134 2776 
L 134 2560 
L 653 2560 
L 653 789 
C 653 114 1178 -32 1638 -32 
C 2112 -32 2394 325 2394 795 
L 2394 1133 
L 2125 1133 
L 2125 802 
C 2125 381 1933 197 1734 197 
C 1350 197 1350 624 1350 770 
L 1350 2560 
z
" transform="scale(0.015625)"/>
       <path id="CMBX12-68" d="M 3398 1924 
C 3398 2525 3136 2834 2432 2834 
C 1786 2834 1472 2384 1382 2194 
L 1376 2194 
L 1376 4416 
L 269 4416 
L 269 4117 
C 666 4117 710 4117 710 3858 
L 710 260 
L 269 260 
L 269 -13 
C 416 0 877 0 1056 0 
C 1235 0 1702 0 1850 -13 
L 1850 260 
L 1408 260 
L 1408 1607 
C 1408 2289 1920 2624 2330 2624 
C 2566 2624 2701 2473 2701 1993 
L 2701 260 
L 2259 260 
L 2259 -13 
C 2406 0 2867 0 3046 0 
C 3226 0 3693 0 3840 -13 
L 3840 260 
L 3398 260 
L 3398 1924 
z
" transform="scale(0.015625)"/>
       <path id="CMBX12-6f" d="M 3392 1395 
C 3392 2252 2803 2880 1798 2880 
C 755 2880 198 2220 198 1395 
C 198 565 787 -32 1792 -32 
C 2835 -32 3392 596 3392 1395 
z
M 1798 197 
C 966 197 966 939 966 1459 
C 966 1757 966 2074 1088 2303 
C 1229 2556 1517 2670 1792 2670 
C 2157 2670 2387 2499 2496 2322 
C 2624 2093 2624 1763 2624 1459 
C 2624 932 2624 197 1798 197 
z
" transform="scale(0.015625)"/>
      </defs>
      <use xlink:href="#CMBX12-4f" transform="scale(0.996264)"/>
      <use xlink:href="#CMBX12-72" transform="translate(84.175021 0) scale(0.996264)"/>
      <use xlink:href="#CMBX12-74" transform="translate(129.952528 0) scale(0.996264)"/>
      <use xlink:href="#CMBX12-68" transform="translate(173.539078 0) scale(0.996264)"/>
      <use xlink:href="#CMBX12-6f" transform="translate(235.805579 0) scale(0.996264)"/>
      <use xlink:href="#CMBX12-2e" transform="translate(291.845429 0) scale(0.996264)"/>
     </g>
    </g>
    <g id="patch_39">
     <path d="M 487.892972 35.816082 
L 507.047372 35.816082 
L 507.047372 29.112042 
L 487.892972 29.112042 
L 487.892972 35.816082 
z
" style="fill: none"/>
    </g>
    <g id="text_37">
     <!-- - - - -->
     <g style="fill: #262626" transform="translate(487.892972 35.816082) scale(0.095772 -0.095772)">
      <use xlink:href="#CMR17-7c" transform="scale(0.996264)"/>
     </g>
    </g>
    <g id="patch_40">
     <path d="M 487.892972 49.163994 
L 507.047372 49.163994 
L 507.047372 42.459954 
L 487.892972 42.459954 
L 487.892972 49.163994 
z
" style="fill: none"/>
    </g>
    <g id="text_38">
     <!-- - - - -->
     <g style="fill: #262626" transform="translate(487.892972 49.163994) scale(0.095772 -0.095772)">
      <use xlink:href="#CMR17-7c" transform="scale(0.996264)"/>
     </g>
    </g>
    <g id="patch_41">
     <path d="M 487.892972 62.511905 
L 507.047372 62.511905 
L 507.047372 55.807865 
L 487.892972 55.807865 
L 487.892972 62.511905 
z
" style="fill: none"/>
    </g>
    <g id="text_39">
     <!-- No -->
     <g style="fill: #262626" transform="translate(487.892972 62.511905) scale(0.095772 -0.095772)">
      <use xlink:href="#CMR17-4e" transform="scale(0.996264)"/>
      <use xlink:href="#CMR17-6f" transform="translate(69.07243 0) scale(0.996264)"/>
     </g>
    </g>
    <g id="patch_42">
     <path d="M 487.892972 75.859816 
L 507.047372 75.859816 
L 507.047372 69.155776 
L 487.892972 69.155776 
L 487.892972 75.859816 
z
" style="fill: none"/>
    </g>
    <g id="text_40">
     <!-- Yes -->
     <g style="fill: #262626" transform="translate(487.892972 75.859816) scale(0.095772 -0.095772)">
      <use xlink:href="#CMR17-59" transform="scale(0.996264)"/>
      <use xlink:href="#CMR17-65" transform="translate(61.265174 0) scale(0.996264)"/>
      <use xlink:href="#CMR17-73" transform="translate(101.750835 0) scale(0.996264)"/>
     </g>
    </g>
    <g id="patch_43">
     <path d="M 487.892972 89.207727 
L 507.047372 89.207727 
L 507.047372 82.503687 
L 487.892972 82.503687 
L 487.892972 89.207727 
z
" style="fill: none"/>
    </g>
    <g id="text_41">
     <!-- No -->
     <g style="fill: #262626" transform="translate(487.892972 89.207727) scale(0.095772 -0.095772)">
      <use xlink:href="#CMR17-4e" transform="scale(0.996264)"/>
      <use xlink:href="#CMR17-6f" transform="translate(69.07243 0) scale(0.996264)"/>
     </g>
    </g>
    <g id="patch_44">
     <path d="M 487.892972 102.555638 
L 507.047372 102.555638 
L 507.047372 95.851598 
L 487.892972 95.851598 
L 487.892972 102.555638 
z
" style="fill: none"/>
    </g>
    <g id="text_42">
     <!-- No -->
     <g style="fill: #262626" transform="translate(487.892972 102.555638) scale(0.095772 -0.095772)">
      <use xlink:href="#CMR17-4e" transform="scale(0.996264)"/>
      <use xlink:href="#CMR17-6f" transform="translate(69.07243 0) scale(0.996264)"/>
     </g>
    </g>
    <g id="patch_45">
     <path d="M 487.892972 115.903549 
L 507.047372 115.903549 
L 507.047372 109.199509 
L 487.892972 109.199509 
L 487.892972 115.903549 
z
" style="fill: none"/>
    </g>
    <g id="text_43">
     <!-- Yes -->
     <g style="fill: #262626" transform="translate(487.892972 115.903549) scale(0.095772 -0.095772)">
      <use xlink:href="#CMR17-59" transform="scale(0.996264)"/>
      <use xlink:href="#CMR17-65" transform="translate(61.265174 0) scale(0.996264)"/>
      <use xlink:href="#CMR17-73" transform="translate(101.750835 0) scale(0.996264)"/>
     </g>
    </g>
    <g id="patch_46">
     <path d="M 487.892972 129.25146 
L 507.047372 129.25146 
L 507.047372 122.54742 
L 487.892972 122.54742 
L 487.892972 129.25146 
z
" style="fill: none"/>
    </g>
    <g id="text_44">
     <!-- Yes -->
     <g style="fill: #262626" transform="translate(487.892972 129.25146) scale(0.095772 -0.095772)">
      <use xlink:href="#CMR17-59" transform="scale(0.996264)"/>
      <use xlink:href="#CMR17-65" transform="translate(61.265174 0) scale(0.996264)"/>
      <use xlink:href="#CMR17-73" transform="translate(101.750835 0) scale(0.996264)"/>
     </g>
    </g>
   </g>
  </g>
 </g>
 <defs>
  <clipPath id="p583117b63a">
   <rect x="41.498364" y="11.575939" width="279.28738" height="244.165238"/>
  </clipPath>
 </defs>
</svg>
